<mxfile host="app.diagrams.net" modified="2024-05-06T04:52:15.648Z" agent="Mozilla/5.0 (Windows NT 10.0; Win64; x64) AppleWebKit/537.36 (KHTML, like Gecko) Chrome/121.0.0.0 Safari/537.36 OPR/107.0.0.0" etag="Y096sK7OrMWkw57Vz6Lh" version="24.3.1" type="github">
  <diagram name="Page-1" id="e7e014a7-5840-1c2e-5031-d8a46d1fe8dd">
    <mxGraphModel dx="1804" dy="1042" grid="1" gridSize="10" guides="1" tooltips="1" connect="1" arrows="1" fold="1" page="1" pageScale="1" pageWidth="1169" pageHeight="826" background="none" math="0" shadow="0">
      <root>
        <mxCell id="0" />
        <mxCell id="1" parent="0" />
        <mxCell id="2" value="Quản trị viên" style="swimlane;whiteSpace=wrap" parent="1" vertex="1">
          <mxGeometry x="164.5" y="130" width="275.5" height="660" as="geometry" />
        </mxCell>
        <mxCell id="5" value="" style="ellipse;shape=startState;fillColor=#000000;strokeColor=#ff0000;" parent="2" vertex="1">
          <mxGeometry x="100" y="40" width="30" height="30" as="geometry" />
        </mxCell>
        <mxCell id="6" value="" style="edgeStyle=elbowEdgeStyle;elbow=horizontal;verticalAlign=bottom;endArrow=open;endSize=8;strokeColor=#FF0000;endFill=1;rounded=0" parent="2" source="5" edge="1">
          <mxGeometry x="100" y="40" as="geometry">
            <mxPoint x="115" y="110" as="targetPoint" />
          </mxGeometry>
        </mxCell>
        <mxCell id="9" value="" style="endArrow=open;strokeColor=#FF0000;endFill=1;rounded=0" parent="2" edge="1">
          <mxGeometry relative="1" as="geometry">
            <mxPoint x="115" y="160" as="sourcePoint" />
            <mxPoint x="115" y="220" as="targetPoint" />
          </mxGeometry>
        </mxCell>
        <mxCell id="1qnnJnAigtBVp87FX5BY-41" value="Truy cập hệ thống" style="rounded=1;whiteSpace=wrap;html=1;arcSize=40;fontColor=#000000;fillColor=#ffffc0;strokeColor=#ff0000;" vertex="1" parent="2">
          <mxGeometry x="55" y="112" width="120" height="40" as="geometry" />
        </mxCell>
        <mxCell id="1qnnJnAigtBVp87FX5BY-43" value="Chọn &quot;đăng ký&quot;" style="rounded=1;whiteSpace=wrap;html=1;arcSize=40;fontColor=#000000;fillColor=#ffffc0;strokeColor=#ff0000;" vertex="1" parent="2">
          <mxGeometry x="60" y="222" width="120" height="40" as="geometry" />
        </mxCell>
        <mxCell id="1qnnJnAigtBVp87FX5BY-115" value="Nhập thông tin đăng ký" style="rounded=1;whiteSpace=wrap;html=1;arcSize=40;fontColor=#000000;fillColor=#ffffc0;strokeColor=#ff0000;" vertex="1" parent="2">
          <mxGeometry x="65.5" y="302" width="120" height="40" as="geometry" />
        </mxCell>
        <mxCell id="1qnnJnAigtBVp87FX5BY-116" value="" style="edgeStyle=orthogonalEdgeStyle;html=1;verticalAlign=bottom;endArrow=open;endSize=8;strokeColor=#ff0000;rounded=0;entryX=0;entryY=0.5;entryDx=0;entryDy=0;" edge="1" parent="2" target="1qnnJnAigtBVp87FX5BY-117">
          <mxGeometry relative="1" as="geometry">
            <mxPoint x="125.5" y="402" as="targetPoint" />
            <mxPoint x="125.5" y="382" as="sourcePoint" />
          </mxGeometry>
        </mxCell>
        <mxCell id="3" value="Hệ thống" style="swimlane;whiteSpace=wrap" parent="1" vertex="1">
          <mxGeometry x="440" y="130" width="310" height="662" as="geometry" />
        </mxCell>
        <mxCell id="1qnnJnAigtBVp87FX5BY-113" value="Hiển thị form đăng ký" style="rounded=1;whiteSpace=wrap;html=1;arcSize=40;fontColor=#000000;fillColor=#ffffc0;strokeColor=#ff0000;" vertex="1" parent="3">
          <mxGeometry x="50" y="222" width="120" height="40" as="geometry" />
        </mxCell>
        <mxCell id="1qnnJnAigtBVp87FX5BY-117" value="" style="rhombus;whiteSpace=wrap;html=1;fillColor=#ffffc0;strokeColor=#ff0000;fontColor=#000000;rounded=1;arcSize=40;" vertex="1" parent="3">
          <mxGeometry x="65" y="330" width="80" height="80" as="geometry" />
        </mxCell>
        <mxCell id="1qnnJnAigtBVp87FX5BY-122" value="Không hợp lệ" style="text;html=1;align=center;verticalAlign=middle;whiteSpace=wrap;rounded=0;fontColor=#FF0000;" vertex="1" parent="3">
          <mxGeometry x="20" y="322" width="60" height="30" as="geometry" />
        </mxCell>
        <mxCell id="1qnnJnAigtBVp87FX5BY-125" value="Đi đến form đăng nhập" style="rounded=1;whiteSpace=wrap;html=1;arcSize=40;fontColor=#000000;fillColor=#ffffc0;strokeColor=#ff0000;" vertex="1" parent="3">
          <mxGeometry x="50" y="460" width="120" height="40" as="geometry" />
        </mxCell>
        <mxCell id="1qnnJnAigtBVp87FX5BY-126" value="" style="edgeStyle=orthogonalEdgeStyle;html=1;verticalAlign=bottom;endArrow=open;endSize=8;strokeColor=#ff0000;rounded=0;" edge="1" source="1qnnJnAigtBVp87FX5BY-125" parent="3">
          <mxGeometry relative="1" as="geometry">
            <mxPoint x="110" y="552" as="targetPoint" />
          </mxGeometry>
        </mxCell>
        <mxCell id="1qnnJnAigtBVp87FX5BY-129" value="" style="ellipse;html=1;shape=endState;fillColor=#000000;strokeColor=#ff0000;" vertex="1" parent="3">
          <mxGeometry x="95" y="552" width="30" height="30" as="geometry" />
        </mxCell>
        <mxCell id="1qnnJnAigtBVp87FX5BY-130" value="" style="endArrow=classic;html=1;rounded=0;entryX=0.459;entryY=-0.046;entryDx=0;entryDy=0;exitX=0.487;exitY=0.935;exitDx=0;exitDy=0;exitPerimeter=0;fontColor=#FF0000;strokeColor=#FF0000;entryPerimeter=0;" edge="1" parent="3" source="1qnnJnAigtBVp87FX5BY-117" target="1qnnJnAigtBVp87FX5BY-125">
          <mxGeometry width="50" height="50" relative="1" as="geometry">
            <mxPoint x="40" y="462" as="sourcePoint" />
            <mxPoint x="90" y="412" as="targetPoint" />
          </mxGeometry>
        </mxCell>
        <mxCell id="1qnnJnAigtBVp87FX5BY-132" value="&amp;nbsp;Hợp lệ" style="text;html=1;align=center;verticalAlign=middle;whiteSpace=wrap;rounded=0;fontColor=#FF0000;" vertex="1" parent="3">
          <mxGeometry x="125" y="410" width="60" height="30" as="geometry" />
        </mxCell>
        <mxCell id="1qnnJnAigtBVp87FX5BY-44" value="" style="edgeStyle=orthogonalEdgeStyle;html=1;verticalAlign=bottom;endArrow=open;endSize=8;strokeColor=#ff0000;rounded=0;" edge="1" source="1qnnJnAigtBVp87FX5BY-43" parent="1" target="1qnnJnAigtBVp87FX5BY-113">
          <mxGeometry relative="1" as="geometry">
            <mxPoint x="280" y="460" as="targetPoint" />
          </mxGeometry>
        </mxCell>
        <mxCell id="1qnnJnAigtBVp87FX5BY-119" value="" style="endArrow=none;html=1;rounded=0;entryX=0.5;entryY=1;entryDx=0;entryDy=0;fontColor=#FF0000;strokeColor=#FF0000;" edge="1" parent="1" target="1qnnJnAigtBVp87FX5BY-113">
          <mxGeometry width="50" height="50" relative="1" as="geometry">
            <mxPoint x="550" y="450" as="sourcePoint" />
            <mxPoint x="660" y="390" as="targetPoint" />
          </mxGeometry>
        </mxCell>
        <mxCell id="1qnnJnAigtBVp87FX5BY-120" value="" style="endArrow=classic;html=1;rounded=0;strokeColor=#FF0000;" edge="1" parent="1" target="1qnnJnAigtBVp87FX5BY-115">
          <mxGeometry width="50" height="50" relative="1" as="geometry">
            <mxPoint x="550" y="450" as="sourcePoint" />
            <mxPoint x="510" y="440" as="targetPoint" />
          </mxGeometry>
        </mxCell>
        <mxCell id="1qnnJnAigtBVp87FX5BY-121" value="" style="edgeStyle=elbowEdgeStyle;elbow=horizontal;endArrow=classic;html=1;curved=0;rounded=0;endSize=8;startSize=8;entryX=1;entryY=0.75;entryDx=0;entryDy=0;exitX=0.483;exitY=0.089;exitDx=0;exitDy=0;exitPerimeter=0;strokeColor=#FF0000;" edge="1" parent="1" source="1qnnJnAigtBVp87FX5BY-117" target="1qnnJnAigtBVp87FX5BY-115">
          <mxGeometry width="50" height="50" relative="1" as="geometry">
            <mxPoint x="546" y="490" as="sourcePoint" />
            <mxPoint x="660" y="390" as="targetPoint" />
          </mxGeometry>
        </mxCell>
        <mxCell id="1qnnJnAigtBVp87FX5BY-124" value="" style="endArrow=none;html=1;rounded=0;entryX=0.5;entryY=1;entryDx=0;entryDy=0;strokeColor=#FF0000;" edge="1" parent="1" target="1qnnJnAigtBVp87FX5BY-115">
          <mxGeometry width="50" height="50" relative="1" as="geometry">
            <mxPoint x="290" y="510" as="sourcePoint" />
            <mxPoint x="450" y="390" as="targetPoint" />
          </mxGeometry>
        </mxCell>
        <mxCell id="1qnnJnAigtBVp87FX5BY-154" value="Quản trị viên" style="swimlane;whiteSpace=wrap" vertex="1" parent="1">
          <mxGeometry x="890" y="129" width="275.5" height="660" as="geometry" />
        </mxCell>
        <mxCell id="1qnnJnAigtBVp87FX5BY-155" value="" style="ellipse;shape=startState;fillColor=#000000;strokeColor=#ff0000;" vertex="1" parent="1qnnJnAigtBVp87FX5BY-154">
          <mxGeometry x="100" y="40" width="30" height="30" as="geometry" />
        </mxCell>
        <mxCell id="1qnnJnAigtBVp87FX5BY-156" value="" style="edgeStyle=elbowEdgeStyle;elbow=horizontal;verticalAlign=bottom;endArrow=open;endSize=8;strokeColor=#FF0000;endFill=1;rounded=0" edge="1" parent="1qnnJnAigtBVp87FX5BY-154" source="1qnnJnAigtBVp87FX5BY-155">
          <mxGeometry x="100" y="40" as="geometry">
            <mxPoint x="115" y="110" as="targetPoint" />
          </mxGeometry>
        </mxCell>
        <mxCell id="1qnnJnAigtBVp87FX5BY-157" value="" style="endArrow=open;strokeColor=#FF0000;endFill=1;rounded=0" edge="1" parent="1qnnJnAigtBVp87FX5BY-154">
          <mxGeometry relative="1" as="geometry">
            <mxPoint x="115" y="160" as="sourcePoint" />
            <mxPoint x="115" y="220" as="targetPoint" />
          </mxGeometry>
        </mxCell>
        <mxCell id="1qnnJnAigtBVp87FX5BY-158" value="Chọn giỏ hàng" style="rounded=1;whiteSpace=wrap;html=1;arcSize=40;fontColor=#000000;fillColor=#ffffc0;strokeColor=#ff0000;" vertex="1" parent="1qnnJnAigtBVp87FX5BY-154">
          <mxGeometry x="55" y="112" width="120" height="40" as="geometry" />
        </mxCell>
        <mxCell id="1qnnJnAigtBVp87FX5BY-159" value="Nhập thông tin và hình thức thanh toán" style="rounded=1;whiteSpace=wrap;html=1;arcSize=40;fontColor=#000000;fillColor=#ffffc0;strokeColor=#ff0000;" vertex="1" parent="1qnnJnAigtBVp87FX5BY-154">
          <mxGeometry x="60" y="222" width="120" height="40" as="geometry" />
        </mxCell>
        <mxCell id="1qnnJnAigtBVp87FX5BY-162" value="Hệ thống" style="swimlane;whiteSpace=wrap" vertex="1" parent="1">
          <mxGeometry x="1165.5" y="129" width="310" height="662" as="geometry" />
        </mxCell>
        <mxCell id="1qnnJnAigtBVp87FX5BY-163" value="Hiển thị form giỏ hàng" style="rounded=1;whiteSpace=wrap;html=1;arcSize=40;fontColor=#000000;fillColor=#ffffc0;strokeColor=#ff0000;" vertex="1" parent="1qnnJnAigtBVp87FX5BY-162">
          <mxGeometry x="50" y="111" width="120" height="40" as="geometry" />
        </mxCell>
        <mxCell id="1qnnJnAigtBVp87FX5BY-164" value="" style="rhombus;whiteSpace=wrap;html=1;fillColor=#ffffc0;strokeColor=#ff0000;fontColor=#000000;rounded=1;arcSize=40;" vertex="1" parent="1qnnJnAigtBVp87FX5BY-162">
          <mxGeometry x="70" y="272" width="80" height="80" as="geometry" />
        </mxCell>
        <mxCell id="1qnnJnAigtBVp87FX5BY-165" value="Không hợp lệ" style="text;html=1;align=center;verticalAlign=middle;whiteSpace=wrap;rounded=0;fontColor=#FF0000;" vertex="1" parent="1qnnJnAigtBVp87FX5BY-162">
          <mxGeometry x="10" y="242" width="60" height="30" as="geometry" />
        </mxCell>
        <mxCell id="1qnnJnAigtBVp87FX5BY-166" value="Trả về kết quả thanh toán" style="rounded=1;whiteSpace=wrap;html=1;arcSize=40;fontColor=#000000;fillColor=#ffffc0;strokeColor=#ff0000;" vertex="1" parent="1qnnJnAigtBVp87FX5BY-162">
          <mxGeometry x="50" y="451" width="120" height="40" as="geometry" />
        </mxCell>
        <mxCell id="1qnnJnAigtBVp87FX5BY-167" value="" style="edgeStyle=orthogonalEdgeStyle;html=1;verticalAlign=bottom;endArrow=open;endSize=8;strokeColor=#ff0000;rounded=0;" edge="1" parent="1qnnJnAigtBVp87FX5BY-162" source="1qnnJnAigtBVp87FX5BY-166">
          <mxGeometry relative="1" as="geometry">
            <mxPoint x="110" y="552" as="targetPoint" />
          </mxGeometry>
        </mxCell>
        <mxCell id="1qnnJnAigtBVp87FX5BY-168" value="" style="ellipse;html=1;shape=endState;fillColor=#000000;strokeColor=#ff0000;" vertex="1" parent="1qnnJnAigtBVp87FX5BY-162">
          <mxGeometry x="95" y="552" width="30" height="30" as="geometry" />
        </mxCell>
        <mxCell id="1qnnJnAigtBVp87FX5BY-169" value="" style="endArrow=classic;html=1;rounded=0;exitX=0.487;exitY=0.935;exitDx=0;exitDy=0;exitPerimeter=0;fontColor=#FF0000;strokeColor=#FF0000;" edge="1" parent="1qnnJnAigtBVp87FX5BY-162" source="1qnnJnAigtBVp87FX5BY-164">
          <mxGeometry width="50" height="50" relative="1" as="geometry">
            <mxPoint x="40" y="462" as="sourcePoint" />
            <mxPoint x="108.5" y="451" as="targetPoint" />
          </mxGeometry>
        </mxCell>
        <mxCell id="1qnnJnAigtBVp87FX5BY-170" value="&amp;nbsp;Hợp lệ" style="text;html=1;align=center;verticalAlign=middle;whiteSpace=wrap;rounded=0;fontColor=#FF0000;" vertex="1" parent="1qnnJnAigtBVp87FX5BY-162">
          <mxGeometry x="125" y="410" width="60" height="30" as="geometry" />
        </mxCell>
        <mxCell id="1qnnJnAigtBVp87FX5BY-171" value="" style="edgeStyle=orthogonalEdgeStyle;html=1;verticalAlign=bottom;endArrow=open;endSize=8;strokeColor=#ff0000;rounded=0;entryX=1;entryY=0.5;entryDx=0;entryDy=0;exitX=0.5;exitY=1;exitDx=0;exitDy=0;" edge="1" parent="1" source="1qnnJnAigtBVp87FX5BY-163" target="1qnnJnAigtBVp87FX5BY-159">
          <mxGeometry relative="1" as="geometry">
            <mxPoint x="1300" y="320" as="targetPoint" />
            <mxPoint x="1100" y="370" as="sourcePoint" />
          </mxGeometry>
        </mxCell>
        <mxCell id="1qnnJnAigtBVp87FX5BY-174" value="" style="edgeStyle=elbowEdgeStyle;elbow=horizontal;endArrow=classic;html=1;curved=0;rounded=0;endSize=8;startSize=8;entryX=1;entryY=0.75;entryDx=0;entryDy=0;exitX=0.483;exitY=0.089;exitDx=0;exitDy=0;exitPerimeter=0;strokeColor=#FF0000;" edge="1" parent="1" source="1qnnJnAigtBVp87FX5BY-164" target="1qnnJnAigtBVp87FX5BY-159">
          <mxGeometry width="50" height="50" relative="1" as="geometry">
            <mxPoint x="1271.5" y="489" as="sourcePoint" />
            <mxPoint x="1075.5" y="461" as="targetPoint" />
          </mxGeometry>
        </mxCell>
        <mxCell id="1qnnJnAigtBVp87FX5BY-178" value="" style="endArrow=classic;html=1;rounded=0;entryX=0;entryY=0.5;entryDx=0;entryDy=0;exitX=1;exitY=0.5;exitDx=0;exitDy=0;strokeColor=#FF0000;" edge="1" parent="1" source="1qnnJnAigtBVp87FX5BY-158" target="1qnnJnAigtBVp87FX5BY-163">
          <mxGeometry width="50" height="50" relative="1" as="geometry">
            <mxPoint x="1160" y="480" as="sourcePoint" />
            <mxPoint x="1210" y="430" as="targetPoint" />
          </mxGeometry>
        </mxCell>
        <mxCell id="1qnnJnAigtBVp87FX5BY-161" value="" style="edgeStyle=orthogonalEdgeStyle;html=1;verticalAlign=bottom;endArrow=open;endSize=8;strokeColor=#ff0000;rounded=0;entryX=0;entryY=0.5;entryDx=0;entryDy=0;exitX=0.5;exitY=1;exitDx=0;exitDy=0;" edge="1" parent="1" target="1qnnJnAigtBVp87FX5BY-164" source="1qnnJnAigtBVp87FX5BY-159">
          <mxGeometry relative="1" as="geometry">
            <mxPoint x="1015.5" y="531" as="targetPoint" />
            <mxPoint x="1010" y="441" as="sourcePoint" />
          </mxGeometry>
        </mxCell>
        <mxCell id="1qnnJnAigtBVp87FX5BY-198" value="Quản trị viên" style="swimlane;whiteSpace=wrap" vertex="1" parent="1">
          <mxGeometry x="50" y="860" width="275.5" height="660" as="geometry" />
        </mxCell>
        <mxCell id="1qnnJnAigtBVp87FX5BY-199" value="" style="ellipse;shape=startState;fillColor=#000000;strokeColor=#ff0000;" vertex="1" parent="1qnnJnAigtBVp87FX5BY-198">
          <mxGeometry x="100" y="40" width="30" height="30" as="geometry" />
        </mxCell>
        <mxCell id="1qnnJnAigtBVp87FX5BY-200" value="" style="edgeStyle=elbowEdgeStyle;elbow=horizontal;verticalAlign=bottom;endArrow=open;endSize=8;strokeColor=#FF0000;endFill=1;rounded=0" edge="1" parent="1qnnJnAigtBVp87FX5BY-198" source="1qnnJnAigtBVp87FX5BY-199">
          <mxGeometry x="100" y="40" as="geometry">
            <mxPoint x="115" y="110" as="targetPoint" />
          </mxGeometry>
        </mxCell>
        <mxCell id="1qnnJnAigtBVp87FX5BY-201" value="" style="endArrow=open;strokeColor=#FF0000;endFill=1;rounded=0" edge="1" parent="1qnnJnAigtBVp87FX5BY-198">
          <mxGeometry relative="1" as="geometry">
            <mxPoint x="115" y="160" as="sourcePoint" />
            <mxPoint x="115" y="220" as="targetPoint" />
          </mxGeometry>
        </mxCell>
        <mxCell id="1qnnJnAigtBVp87FX5BY-202" value="Đăng nhập" style="rounded=1;whiteSpace=wrap;html=1;arcSize=40;fontColor=#000000;fillColor=#ffffc0;strokeColor=#ff0000;" vertex="1" parent="1qnnJnAigtBVp87FX5BY-198">
          <mxGeometry x="55" y="112" width="120" height="40" as="geometry" />
        </mxCell>
        <mxCell id="1qnnJnAigtBVp87FX5BY-218" value="" style="edgeStyle=orthogonalEdgeStyle;rounded=0;orthogonalLoop=1;jettySize=auto;html=1;strokeColor=#FF0000;" edge="1" parent="1qnnJnAigtBVp87FX5BY-198" source="1qnnJnAigtBVp87FX5BY-203" target="1qnnJnAigtBVp87FX5BY-217">
          <mxGeometry relative="1" as="geometry" />
        </mxCell>
        <mxCell id="1qnnJnAigtBVp87FX5BY-203" value="Chọn&quot; Quản lý&amp;nbsp; sản phẩm&quot;" style="rounded=1;whiteSpace=wrap;html=1;arcSize=40;fontColor=#000000;fillColor=#ffffc0;strokeColor=#ff0000;" vertex="1" parent="1qnnJnAigtBVp87FX5BY-198">
          <mxGeometry x="55" y="190" width="120" height="40" as="geometry" />
        </mxCell>
        <mxCell id="1qnnJnAigtBVp87FX5BY-221" value="" style="edgeStyle=orthogonalEdgeStyle;rounded=0;orthogonalLoop=1;jettySize=auto;html=1;strokeColor=#FF0000;" edge="1" parent="1qnnJnAigtBVp87FX5BY-198" source="1qnnJnAigtBVp87FX5BY-217" target="1qnnJnAigtBVp87FX5BY-220">
          <mxGeometry relative="1" as="geometry" />
        </mxCell>
        <mxCell id="1qnnJnAigtBVp87FX5BY-217" value="Chọn&quot;Thêm mới&quot;" style="rounded=1;whiteSpace=wrap;html=1;arcSize=40;fontColor=#000000;fillColor=#ffffc0;strokeColor=#ff0000;" vertex="1" parent="1qnnJnAigtBVp87FX5BY-198">
          <mxGeometry x="55" y="280" width="120" height="40" as="geometry" />
        </mxCell>
        <mxCell id="1qnnJnAigtBVp87FX5BY-210" value="" style="ellipse;html=1;shape=endState;fillColor=#000000;strokeColor=#ff0000;" vertex="1" parent="1qnnJnAigtBVp87FX5BY-198">
          <mxGeometry x="90" y="565" width="30" height="30" as="geometry" />
        </mxCell>
        <mxCell id="1qnnJnAigtBVp87FX5BY-220" value="Nhập thông tin sản phẩm" style="rounded=1;whiteSpace=wrap;html=1;arcSize=40;fontColor=#000000;fillColor=#ffffc0;strokeColor=#ff0000;" vertex="1" parent="1qnnJnAigtBVp87FX5BY-198">
          <mxGeometry x="55" y="359" width="120" height="40" as="geometry" />
        </mxCell>
        <mxCell id="1qnnJnAigtBVp87FX5BY-226" value="" style="edgeStyle=segmentEdgeStyle;endArrow=classic;html=1;curved=0;rounded=0;endSize=8;startSize=8;entryX=0;entryY=0.5;entryDx=0;entryDy=0;exitX=0.5;exitY=1;exitDx=0;exitDy=0;strokeColor=#FF0000;" edge="1" parent="1qnnJnAigtBVp87FX5BY-198" source="1qnnJnAigtBVp87FX5BY-220" target="1qnnJnAigtBVp87FX5BY-206">
          <mxGeometry width="50" height="50" relative="1" as="geometry">
            <mxPoint x="120" y="430" as="sourcePoint" />
            <mxPoint x="180" y="420" as="targetPoint" />
            <Array as="points">
              <mxPoint x="120" y="399" />
              <mxPoint x="120" y="430" />
            </Array>
          </mxGeometry>
        </mxCell>
        <mxCell id="1qnnJnAigtBVp87FX5BY-227" value="&lt;div&gt;&lt;br&gt;&lt;/div&gt;&lt;div&gt;&lt;br&gt;&lt;/div&gt;" style="edgeLabel;html=1;align=center;verticalAlign=middle;resizable=0;points=[];" vertex="1" connectable="0" parent="1qnnJnAigtBVp87FX5BY-226">
          <mxGeometry x="-1" y="2" relative="1" as="geometry">
            <mxPoint x="-1" as="offset" />
          </mxGeometry>
        </mxCell>
        <mxCell id="1qnnJnAigtBVp87FX5BY-204" value="Hệ thống" style="swimlane;whiteSpace=wrap" vertex="1" parent="1">
          <mxGeometry x="325.5" y="860" width="310" height="662" as="geometry" />
        </mxCell>
        <mxCell id="1qnnJnAigtBVp87FX5BY-205" value="Hiển thị form thêm mới" style="rounded=1;whiteSpace=wrap;html=1;arcSize=40;fontColor=#000000;fillColor=#ffffc0;strokeColor=#ff0000;" vertex="1" parent="1qnnJnAigtBVp87FX5BY-204">
          <mxGeometry x="70" y="280" width="120" height="40" as="geometry" />
        </mxCell>
        <mxCell id="1qnnJnAigtBVp87FX5BY-206" value="" style="rhombus;whiteSpace=wrap;html=1;fillColor=#ffffc0;strokeColor=#ff0000;fontColor=#000000;rounded=1;arcSize=40;" vertex="1" parent="1qnnJnAigtBVp87FX5BY-204">
          <mxGeometry x="90" y="390" width="80" height="80" as="geometry" />
        </mxCell>
        <mxCell id="1qnnJnAigtBVp87FX5BY-208" value="Trả về kết quả thanh toán" style="rounded=1;whiteSpace=wrap;html=1;arcSize=40;fontColor=#000000;fillColor=#ffffc0;strokeColor=#ff0000;" vertex="1" parent="1qnnJnAigtBVp87FX5BY-204">
          <mxGeometry x="70" y="560" width="120" height="40" as="geometry" />
        </mxCell>
        <mxCell id="1qnnJnAigtBVp87FX5BY-211" value="" style="endArrow=classic;html=1;rounded=0;exitX=0.487;exitY=0.935;exitDx=0;exitDy=0;exitPerimeter=0;fontColor=#FF0000;strokeColor=#FF0000;entryX=0.5;entryY=0;entryDx=0;entryDy=0;" edge="1" parent="1qnnJnAigtBVp87FX5BY-204" source="1qnnJnAigtBVp87FX5BY-206" target="1qnnJnAigtBVp87FX5BY-222">
          <mxGeometry width="50" height="50" relative="1" as="geometry">
            <mxPoint x="40" y="462" as="sourcePoint" />
            <mxPoint x="108.5" y="451" as="targetPoint" />
          </mxGeometry>
        </mxCell>
        <mxCell id="1qnnJnAigtBVp87FX5BY-212" value="&amp;nbsp;Hợp lệ" style="text;html=1;align=center;verticalAlign=middle;whiteSpace=wrap;rounded=0;fontColor=#FF0000;" vertex="1" parent="1qnnJnAigtBVp87FX5BY-204">
          <mxGeometry x="149.5" y="450" width="60" height="30" as="geometry" />
        </mxCell>
        <mxCell id="1qnnJnAigtBVp87FX5BY-222" value="Thêm sản phẩm mới vào t rong Database" style="rounded=1;whiteSpace=wrap;html=1;arcSize=40;fontColor=#000000;fillColor=#ffffc0;strokeColor=#ff0000;" vertex="1" parent="1qnnJnAigtBVp87FX5BY-204">
          <mxGeometry x="70" y="490" width="120" height="40" as="geometry" />
        </mxCell>
        <mxCell id="1qnnJnAigtBVp87FX5BY-225" value="" style="endArrow=classic;html=1;rounded=0;entryX=0.5;entryY=0;entryDx=0;entryDy=0;exitX=0.5;exitY=1;exitDx=0;exitDy=0;strokeColor=#FF0000;" edge="1" parent="1qnnJnAigtBVp87FX5BY-204" source="1qnnJnAigtBVp87FX5BY-222" target="1qnnJnAigtBVp87FX5BY-208">
          <mxGeometry width="50" height="50" relative="1" as="geometry">
            <mxPoint x="-15.5" y="390" as="sourcePoint" />
            <mxPoint x="34.5" y="340" as="targetPoint" />
          </mxGeometry>
        </mxCell>
        <mxCell id="1qnnJnAigtBVp87FX5BY-207" value="Không hợp lệ" style="text;html=1;align=center;verticalAlign=middle;whiteSpace=wrap;rounded=0;fontColor=#FF0000;" vertex="1" parent="1qnnJnAigtBVp87FX5BY-204">
          <mxGeometry x="44.5" y="379" width="60" height="30" as="geometry" />
        </mxCell>
        <mxCell id="1qnnJnAigtBVp87FX5BY-219" value="" style="endArrow=classic;html=1;rounded=0;exitX=1;exitY=0.5;exitDx=0;exitDy=0;entryX=0;entryY=0.5;entryDx=0;entryDy=0;strokeColor=#FF0000;" edge="1" parent="1" source="1qnnJnAigtBVp87FX5BY-217" target="1qnnJnAigtBVp87FX5BY-205">
          <mxGeometry width="50" height="50" relative="1" as="geometry">
            <mxPoint x="340" y="1270" as="sourcePoint" />
            <mxPoint x="360" y="1160" as="targetPoint" />
          </mxGeometry>
        </mxCell>
        <mxCell id="1qnnJnAigtBVp87FX5BY-209" value="" style="edgeStyle=orthogonalEdgeStyle;html=1;verticalAlign=bottom;endArrow=open;endSize=8;strokeColor=#ff0000;rounded=0;entryX=1;entryY=0.5;entryDx=0;entryDy=0;exitX=0;exitY=0.5;exitDx=0;exitDy=0;" edge="1" parent="1" source="1qnnJnAigtBVp87FX5BY-208" target="1qnnJnAigtBVp87FX5BY-210">
          <mxGeometry relative="1" as="geometry">
            <mxPoint x="435.5" y="1412" as="targetPoint" />
            <mxPoint x="270" y="1410" as="sourcePoint" />
            <Array as="points">
              <mxPoint x="170" y="1440" />
            </Array>
          </mxGeometry>
        </mxCell>
        <mxCell id="1qnnJnAigtBVp87FX5BY-224" value="" style="edgeStyle=segmentEdgeStyle;endArrow=classic;html=1;curved=0;rounded=0;endSize=8;startSize=8;exitX=0.5;exitY=1;exitDx=0;exitDy=0;strokeColor=#FF0000;" edge="1" parent="1" source="1qnnJnAigtBVp87FX5BY-205">
          <mxGeometry width="50" height="50" relative="1" as="geometry">
            <mxPoint x="470" y="1240" as="sourcePoint" />
            <mxPoint x="230" y="1240" as="targetPoint" />
            <Array as="points">
              <mxPoint x="456" y="1240" />
            </Array>
          </mxGeometry>
        </mxCell>
        <mxCell id="1qnnJnAigtBVp87FX5BY-228" value="" style="edgeStyle=elbowEdgeStyle;elbow=horizontal;endArrow=classic;html=1;curved=0;rounded=0;endSize=8;startSize=8;entryX=0.938;entryY=0.892;entryDx=0;entryDy=0;entryPerimeter=0;exitX=0.159;exitY=0.257;exitDx=0;exitDy=0;exitPerimeter=0;strokeColor=#FF0000;" edge="1" parent="1" source="1qnnJnAigtBVp87FX5BY-206" target="1qnnJnAigtBVp87FX5BY-220">
          <mxGeometry width="50" height="50" relative="1" as="geometry">
            <mxPoint x="240" y="1360" as="sourcePoint" />
            <mxPoint x="290" y="1310" as="targetPoint" />
          </mxGeometry>
        </mxCell>
        <mxCell id="1qnnJnAigtBVp87FX5BY-229" value="" style="shape=image;verticalLabelPosition=bottom;labelBackgroundColor=default;verticalAlign=top;aspect=fixed;imageAspect=0;image=data:image/png,iVBORw0KGgoAAAANSUhEUgAAAqcAAAL6CAYAAAAL9f8tAAAAAXNSR0IArs4c6QAAAARnQU1BAACxjwv8YQUAAAAJcEhZcwAADsMAAA7DAcdvqGQAAKc/SURBVHhe7N0PnFR1vf/x9+wif0TUwD9AoO6N1cooXCuBroikdsvbH5dQgTCJyoruzQj7lSyosJSVkd17qXsrLpqxqMTaP63UkLALWImG2h/BEJd1l1D8wyLLn935fb/n+53d2WXO7szuzOzZndfz8TjMnO/5zpnPzDmc/cz5nvP9xg4dOhQ/5phjlI76+noNHz7cz4U7fPhw8JjOenNV1yJe4k1GvMSbjHiJNxnxEm8y4u3ZeIv8IwAAANDjSE4BAAAQGSSnAAAAiIxYbW1tvKgovRx1//79Gjx4sJ8L19zcHDyms95c1bWIl3iTES/xJiNe4k1GvMSbjHh7Nl5uiDKI1yFeh3gd4nWI1yFeh3gd4nWI18l2vOmluAAAAEAekJwCAAAgMkhOAQAAEBkkpwAAAIgMklMAAABEBskpAAAAIoPkFAAAAJFBcgoAAIDIiDU2NqY9QtSePXt08skn+7lwURmBgHiJNxnxEm8y4iXeZMRLvMmIt2fjTW8tAAAAQB4wfKlBvA7xOsTrEK9DvA7xOsTrEK9DvE624+XMKQAAACKD5BQAAACRQXIKAACAyCA5BQAAQGSQnAIAACAySE4BAAAQGSSnAGB8/a8HtXLHIT8n/aruiD75hwN+Dl1x5abX9PjLTX5OuvaxA8H3iu6x3+urRQOD5/WN8eB7Rffc/JeD/pmCffbypwb7OXRVd46pJKcAYMz5p/6q2nlYy7cd1D27Dmve4wf0uTP7+6XoivNPKtZ1jzfq93ubdPUjr+mpV5r1LyP6+aXoKvu9fvrJ4uB7/dKfDujlQ3G/BF31m91HtOAJt6/OMMn/p0/nO+2u7hxTczZ86Xve8x4/13OOHDmifv16z4GQeHOLeHOrt8c7YMAAveldU/Tw2Bk6MPBEvW/nL/THO//HL+15vfH7Pf744/W6K7+ox04+V8cd3qeLNv+XNm7c6GtES2/6fkePHq1X3vvv2v66N2rE/uc18qeVqqmp8UujKerf71kTJuuxCZ9UwzFDNOn59ar/+Qq9/PLLfmn0RfH7TRxTN46bFXyv//v2ATr3xFiwrLN8MifJ6Y4dO3TWWWdp5cqVvgQAos0eSHeNGKeVB0bppKJDGl+8VxP2PalXXnnF10CmbHJ6x5CJerHZjRpzVf+d6l/zZMs43OiawaPGqCo+puV7/fzAbXplx1+D5+iaxtefrf848sbg//5Z/fbrA6/9SS+++KJfiq5IPqa+flBMHxjZT5/+p36Kx+OdJ6e5GL50+/btKi0tDQIAgN5g84tN+tjvX9OY+7+p735lka5+5IA+8Yb+unx0esdHHM025dceiOuByYODpr2f1B7RbecNMn+ouKKsO+z3at123rEt36v9jtF1b/7lPi0dO1DvHFYc/N+3j3YeXdfRMbWzfJLkFACMn9Ye1ttOLFbJccXBsevlw3E9vOeI3j+S5LSrbttxSFeXtF5jtv4fR3TG4KJgQtel+l4nn9J7LvmIInsT1Djz/9+y//d/sutwm+8YmevomEpyCgAZiMViHLsAIEtSHVM7yyfz+vO1qakp7QkAosAeVFMdo1JNQNRsWhIzycFSbfLzQG+Q1zOn9z24UTueq/dz4T456/1KNyYAyKb2v/LtzTvf/O6dOnZQx9efDT52oK6+8n1+DoiAXVWaOnqtptas1YxRvgzIs66cOc17cjpwwDE6961n+pKjVd/3O82a9p5e1WUKOle/eqpGzKiWpq1S3d0z1PleBPSM9gdS+/yW76zWJz9yqS852s5du7Xlie0kpwDQTuSb9ZO1D7T9HwNEQb2qLrdNQq3T1NWdn/lOZfj0tWa7blTlmh3a4ctyxTVjTVXVLl+Qtk1aaj/n5VXmk7fq+vrQF6Q6HnGMQir2R7g9Ti7d7AsCqY8rwVlNW74kswb39I9H/n1p0kcvlNfk1B7Qjxxp0sFDh3To0GEdPHjITUnztg4H/iiwB7YRmqlVqvPbJF6zSpox4uiDbJo2LVmnKfEFmuDnu8Qe0DM8mHfL5qWauKhSGzeVaeZoDvKFLNXxKjF/+MgRjlvIgPnhP2+mVLVRq56Y2MmPfnMs7sIxd9OSiapYvFEbF1doYj6PmUAW5LVZ/2e/eljFxTF9+Quf8SUmYTWTHS/APo59y1hNed8Vmjn1Yg0aNMguRg+xv84nLirXqvbXKplkLTahQpWb4low3pflS3D91ExVmwNufGG3UlwgVPsmKHuj07L/vktN+55TVVVVUJZ83LKPlTd/U3teatScme83cyhUicuX2h4f7Q99kyh26ZKmo18bemwGIqr9MdXqtFnfXux/+PDhtKZ064aN/mHLjxw+ok9/em7L9Jmkx/PPnxTUaWpi9JCetUnrFpmHaVM1pf3Bb/wUVZqHigfcL/GjmrFs8mrmk88EJOokptZlvtnp8ipVBU1VbmrbJJZg6trE1D5dNNHUc2cxE01cS5e497DrDm328s1oqWJz79kaT0uESXG1PWOcSezozRIH1RNOeF3K45Z9PHzoMGdOkb5Ek36Hxw17WZVJTO3TNTM1ot0xbe281te3P/Pa/pibvP6WY97qpBjaHNvaXs61dMnRx3QgU6nyxPZlyVNem/UTwZx33gS987zx5jExtc43N7tuW9CDdu3QFvs4tiT8V/4TO5IOZh0wyWriTIL9471xsVQ9Y27bxHHNWmm2Xb7RJb7LUjVhTdCCmlUqt0/tmdM2lwdUa8uY5cH6107v4LzEqCmaOs2+/4ogsbUH4XX3uJu05qQ4C9x6hsLHZv9AtG8eSyt29GaJpDPV8Soxf9yQ44NjF2BVTGhN7mL2zKcvDyS3AJl9q66q3NRPdQ3pcM242x1XghtJ48lnSs1x67K64PXtj6k2+Uw+5sY3VQbxtE8uK7aXaK1/f5v8rvAJbP3quZq5Rv71dSp5ok30QF4U2XH1bbN+OlO6dcPG6m+yZ06PNOlAY6MaDzTqwIGDZjKPSfPxOGdO+5TxC4ID5Jwd7tf6RHtGtr2WM7QlKjHJozK+aapcU89Pp7FsuKZcZtPbCq2zB+Jd67TWHITLL5uSIglvf/Z4gqaYPwJatM4ntl63Y0fUJZLTVMerxLw7c8pxC05LYhhMPsH06h9eG7QAVV7sfl4PP3+qOYJVa+3DmfysbT3mlYyxx7Rq7QiS0xQ/uMfP0Sr7o/yedW1+OLe8f0lZ8Lhlh13qX28inhK83iTI85KjB7omVZ7Yvix5yu+ZU5N02jOnNc+/oJq6F83kH5Pmg2b9Zs6c9qhRJQoOV+meHe2Ib+YfMaNMG82B2v7K70nDp893Zzgf2OT/SHSS2AbNae4MiEust/g/AigUPjdNebxKzDfsP8CZU2Sk5eyqv1ypens2ftaaH8fmB3dKaf1w9q+fZn5suwKgR+Q1OR08qL8ON8X12sEjodOggQOCJBY9yZ8lXLNW6/yvcXsNUtAstHmda6Ia20GTf5JND9jatmm8m3fpZ03iDOgtmhucYUic+QwRNKclnwXhJoRCY7f7sBOPS3m8Sp5OHHKsfwXQubZnV82UlZs8fQtOKmklnLQAIRrympz+679coI/N/ECn06mnnuxfgZ4yYaFtiqr23Se5pp1q243UBJ9szk7VJJRIRtvzTU67qnRLqmb9dCXO6HbThIvtudNqVdvrquaF3T3bPkE/+mYpFIaB5gdzquNU+2n6h//FvwII55rxXeuN1famzPY6SDZT8pcuJV1Dqs0rgmtIU1++1F67S5/siYllXHOK/MtrcoreZIIWxOu0alqFJtqkLEhKExLXNxmJ65ls4hqbqh1j2l6f5JJc34Q1eqbKFrvEsGtN44mznvZu/W50iu97HGi9riq1CQvtZQg2QbfNb/amhkptZHQrAN0xaobW2ps7g+OYveSpWuVVdSFd87Umm/byonR6A7EDnribrOxxyx277VnaDm8WTTJ8+vLgmO5eP1e6rO0xHciHvPZzij4i6OtU2tjdDvWBCLJ/0Dl2AV5P9m2NPiHVMTWyw5eiFwvuwI9uYtpxMxkARECir9OIjd6U6Ns50fVU/Q7bsWC5SrjWHnlEcgoAAAKJS7HcpVrusoPKTdwIivyiWR8AktCsDwDZQ7M+AAAAerVYbW1tPGxEp/b279+vwYMH+7lwO3fu1Pjx4zn7AKDX4cwpAGSPPabW1dX5OaezfJJmfQBIQnIKANnTlWb9nCan//M//+NLAKB3uOaaazh2AUCW2GNqJJLTP/7xj3r/+9+vd7zjHb4kXCJgm1l3JpO6lvls6t+/v58Ll6sYiNchXod4nSjHa8seeughTZkyRYnjYpTjTYV4HeJ1iNchXiff8TY1NWnr1q16+umnNWjQIF/aQ8npc889p9NPP70l2I4cPnw4eEwnhkzqWunGm6sYiNchXod4nSjHa6+LGjlyZLDs1FNPDcqiHG8qxOsQr0O8DvE6+Y533759Ov7444PH4447zpd2Hi936wMAACAySE4BAAAQGSSnAAAAiAySUwAAAEQGySkAAAAiI9bY2Jj2CFF79uzRySef7OfC1dbWqqSkJOjaoDPNzc3BYzoxZFLXSjfeXMVAvA7xOsTrRDlee7e+7Wmkpqam5W79KMebCvE6xOsQr0O8Tr7jtXfpDxs2THv37m1zt35n8ab3qQEAAIA8oJ9TI9/9foUhXuJNRrz5j5d+TsMRr0O8DvE6xOuE1aWfUwAAAPR6JKcAAACIDJJTAAAARAbJKQAAACKD5BQAAACRQXIKAACAyCA5BQAAQGSQnAIAACAyGL7UyPdwXmGIl3iTEW/+42X40nDE6xCvQ7wO8TphdRm+FAAAAL0ew5ca+R7OKwzxEm8y4s1/vAxfGo54HeJ1iNchXiesLsOXAgAAoNcjOUV27N0rbd4s3XuvdN990h/+YH8y+YUAAADpITlFlxXX1UlLlmhfaak0bJhefPe7tX36dD1z5ZV6+YILJHsq/y1vUdGyZdLLL/tXAQAAhCM5Rddcf71OLivTr26+WR/fvl0nmaKTXntNpfv2aYyZXnfggEaYsrlPPaWNlZWKvf710le+ErwUAAAgDMkpMvPkk9p31lna+J//qXea2feahPRu8/hisLCtejPdYaZJDQ265PBhPWkS2YbzzpN27QqWAwAAtEdyivT98Y9qfNe79B9PP613mYTzD744HQ+Zaey+fVq1ZYsaJkyQduxwCwAAAJKQnCI9L7yg/e9/vypffVUVvqgrPnXkiH5QW6t9l17qSwAAAFqRnCItBz7+cf3spZe01M93x+fjcf2xpkbNn/2sLwEAAHAYvtTI93BeYaIab+yXv1Tj5ZfrtIMH9ZIv664zzfQ3Mx3ZtEnxc88NyqxC/H7DEG/+42X40nDE6xCvQ7wO8TphdRm+FDlz4Bvf0NIsJqbW02b6diymw7fe6goAAAAMhi818j2cV5hIxmu2pdmYsueQ/uFKsuatZtrSr5+K9++X+vcPygru++0A8eY/XoYvDUe8DvE6xOsQrxNWl+FLkRvr1unRIUOynphaW81UN3Bg8B4AAAAWySk6FH/sMa03v3hy5Q9NTdKf/uTnAABAoSM5RYcObN+u5/zzXPjbgQNqqqnxcwAAoNCRnKJD8cZGHfTPc6HRTM2vveZmAABAwSM5RYeKTjxRx/vnuXBiLKZjhg71cwAAoNCRnKJDg978Zr0pzbsFu+KtgwdLJSV+DgAAFDqSU3TsHe/QhQMG+Jnse8eRI8F7AAAAWCSn6Nh73qPRjY0q87PZ9F4zFQ8ZIr3zna4AAAAUPJJTdGzAAMU/+lF9NgdN+/MGD9axn/60nwMAAJBitbW1aY+tv3//fg221wh2wo6yUlZWFjx2JpdjzaYbb77Hmg0T1Xj7PfOMTvrnf9a7zPONrqjbPmimuwYN0iuPPabmE05whUYhfr9hiDf/8e7evVvjxo3T1q1bW8Z9jnK8qRCvQ7wO8TrE6+Q73oaGBpWWlmr79u1t4ussXoYvNfI9nFeYSMdbWamnv/51vWXfPrlaXWc/4dZjj9XJ3/ym9KlPuUKvYL/fFIg3//EyfGk44nWI1yFeh3idsLoMX4rcqqjQqPPP131p/DLriD1H+sshQ3TilVcelZgCAACQnCJtx957ryaMH68/muSy1Jdl4u1msuP0v+nSS3XMihWuEAAAIAnJKTIy+MEHVTZnjv5SXKwvmflBrrhDw8xUaaY/mOkN8+ZpwOrVthgAAOAoJKfIWOxb31Lxr36l6845Ry8dc4xWDRigq0y57W5qlJlGm8n2XDrHTPcMGqQ9sZj+/cILpU2bpBtvNKUAAACpkZyiay66SIfuu08Dfvc7zZg/X/9VVqb/O/54PWcS0Z1FRfrtiSfq1vPO04e+/GU1PfqoBv7619L48f7FAAAAqZGcontsB/qVlRpiE9BXXlGsuVmxpiYNeuklHbd5s7RwoeJveYuvDAAA0DGSUwAAAEQGySkAAAAiI9bY2Jj2CFF79uxpGTWlI7W1tSopKdGhQ4d8SbhcjpiQbrz5HjEhTF+IN7Ztm3TwYJum/CjHmwrxOoUYr+2E3w4gUlNT09IJf5TjTYV4HeJ1iNchXiff8drO94cNG6a9e/e26YS/s3jT+9RAmvqdfbaK7rnHzwEAAGSG4UuNfA/nFaZPxBuLue6ibrjBF0Q83hSI1ynEeBm+NBzxOsTrEK9DvE5YXYYvBQAAQK9HcgoAAIDIIDlFdn3yk/4JAABA5khOAQAAEBkkpwAAAIgMklMAAABEBskpAAAAIoPkFAAAAJHB8KVGvofzCtMX4i3+zGekESPUtHChL4l2vKkQr1OI8TJ8aTjidYjXIV6HeJ2wugxfCgAAgF6P4UuNfA/nFaZPxHvNNdLIkQxfmgLxOlGOl+FLwxGvQ7wO8TrE64TVZfhSAAAA9HokpwAAAIgMklMAAABEBskpAAAAIoPkFAAAAJFBcgoAAIDIIDkFAABAZJCcAgAAIDIYvtTI93BeYfpCvAxfGo54nSjHy/Cl4YjXIV6HeB3idcLqMnwpAAAAej2GLzXyPZxXmD4RL8OXhiJeJ8rxMnxpOOJ1iNchXod4nbC6DF8KAACAXo/kFAAAAJFBcgoAAIDIIDkFAABAZJCcAgAAIDJITgEAABAZJKcAAACIDJJTAAAARAbJKbqsuKZGuu02Pxcu9tvf+mcAAAAdi9XW1qY9tv7+/fs1ePBgPxfOjrJSVlYWPHYml2PNphtvvseaDdPb4m1et06nfulL2vP73/sS6fjrrlPzqaeqYf78YN4msCe/853avXmz4qefHpR1hO+3FfHmP97du3dr3Lhx2rp1a8u4z1GONxXidYjXIV6HeJ18x9vQ0KDS0lJt3769TXydxcvwpUa+h/MK0yvjnT5dOuMMaeVKV9h++NLZs4OdtukHP4hGvOwPwSPxpo6X4UvDEa9DvA7xOsTrhNVl+FL0DJuErl/vZ9p59tmg2b954UJfAAAA0DGSU3TP5MnuzOns2b4gyU03SVdfnVZzPgAAgEVyiu5LdfbUnzVtad4HAABIA8kpui/57On3vufK/FnToBwAACBNJKfIjuSzpy+/zFlTAADQJSSnyI7E2VPLJqmcNQUAAF1AcorssWdKTzpJevxxzpoCAIAuITlF9tizp295C2dNAQBAl8UaGxvTHiFqz549LaOmdKS2tlYlJSU6dOiQLwmXq9EKrHTjzVUMhRhvMFSpSUyTu4+KcrypEK9TiPHaTvjtACI1NTUtnfBHOd5UiNchXod4HeJ18h2v7Xx/2LBh2rt3b5tO+DuLN71PDaQpfsEF9GsKAAC6jOFLjXwP59XGq69Kjz0mPfOM9v397xqSxnqbm5qCx6Li4uCxI7mqazXY4ciGDPFz4XpjvPFBg1Rsh2EtLZXKyqSBA/3Stgp+/03SF+Jl+NJwxOsQr0O8DvE6YXW7OnwpyamR742l2lpp1Srpp9XSxkekklHSmaMVP+UExQb195XQo147aHagl6S/PSfV1EsXTpI+NFX6yEekoUN9pQLdf0P0hXhJTsMRr0O8DvE6xOuE1SU5TSFyG+uZZ6Sv3Sx9/wfSB86Xyv9ZuuTt0ohhbjmi6VmTnN7/B+nHv5PW/VH6t3+TvvQlmeylsPbfTvSFeElOwxGvQ7wO8TrE64TV7WpyyjWn+XKzSUrHjDFPdkt/vl366RLpo+8hMe0NzjD/gT75fpOgfk165DtmEz5ltuUbpO+Y5wAAIKtITnPNjpb0gX+V1vxQWv9t6XtfkN7EDUO91rlnSVULpNVmWnazimd/1C8AAADZQHKaQ7GdO9Xv4inSsLj06HelC97ml6DX+9eJ0h+/q6KGWvW75N3uxjYAANBtJKe58uKLKi7/oGIXvkla+UVfiD7lxOOknyxW7DTz+KH3+0IAANAdJKe5MmuGYu/8J+lbc30B+qzb/590vHm86iNuHgAAdBnJaS7cdJP0Up30g/m+AH3ebV+UNm7gJikAALqJ4UuNbMYQe/JJ9bOdtm/+rnTem3wpCsIvNkrTl+rwX/8mnXKKL2zVG/bfZIUYL8OXhiNeh3gd4nWI1wmra7uQYvjSCCj++lelz32YxLQQ2ZukzFT89a/5AgAAkCk64TeyFsOf/yydfbZUs0Ya1fkvGPRBj/7N/DD5jPSPf7QZScqK/P7bTiHGSyf84YjXIV6HeB3idcLq0gl/FPzoR9KsfyExLWS2H9Qpb3f7AgAAyBjJaTb9ZK304Ul+BgXrw//s9gUAAJAxktNs2bFD+us26T3v8AUoWJeYfeChDVJjoy8AAADpIjnNlkcfld5xtjQgvetD0IfZsfhHm2nLFl8AAADSRXKaLdu2SW8c5WdQ8M46ze0TAAAgIySn2bJ7tzT8dX6mJz2lpbHJirWfLn9Q9b5GQv3qRVq62T7bq6rLF6lqV1CcP5vvMLHdoU1+NrXE5+msXsQMH+r2CQAAkBGS02w58Jp07AA/0/MqN61XPN46bRxbqRHtEtTh06+QJtjEr1wzx16hGRE88Vu/+i5VLF6ujYtXaOKSp3xpL3Bsf7NPHPAzAAAgXSSnBWLCwuWqXFOpFcGZ0oSztSCRwC4825dFzPnXBrFNWGhinD3iqLO/AACgb2H4UiMbMRR/5tMqGtUk3XC1L+kpthl8rrRpvRaM90XepiWTdcuYaq2d7juHt83qE1a450Z5lV+260FNHb1BZYulikUb3MLFy5MSWHsZQLlmrrHPJ6nS1ntikuruvkhtu9R19daOnSMtWqHqoGyONsZnaYJ9Gry/tKpqm2bOcO/TEoMVxFHpX2e0xODXe1mFymZUqsIum1aR4v170DXL1Hzq29S0cKEviPb+m0ohxsvwpeGI1yFeh3gd4nXC6jJ8KQyXmNpkrSJorm97rWnJmEmq3l7n50zdCdu0qsafOd00R9Uz7k26rnODWc8VbllNhcoXzfXXp9qm9ls10yytC866XmEST5/AhqheJM0P6lZr1bT2zfMrtFbXJsVwq7/21SSg8ypVlrg8IYjhrjbXxVabhLYkiN+sV5Ua0Zua/QEAQEomyS0KhptKZ0q3biJzTrWs/WTrZrLedOvaKRfrDatry3qebaZfbtK0pGtOQ88m2rqLW64zrd/R/s7ySVo1258pHTVCZe6ZsVfr7tmg8svK/HrP1pyqjgceKK+61J0p1VCVjA2eJJmj+YkzpeZ9yt0zY6hm3J109ndXXesZ1ITFietkTd159uzslkjdNFVUXHzUPpLufmandOtmst5c1bVTT8eQSV07hdW1kudzFUMmde3U0zFkUtdOPR1DJnXt1NMxZFLXTj0dQyZ17dTTMWRS1049HUMmde3U0zF0VLf9MdVOna2XM6cFZMd2k1SOGeHnbNO4P7tqprn3+OJO1WnHGqmsxCeUOWQvQ2jpbWDZtqTE1Wn9LEabxBYAAPRWJKcF4ymtW5SUVG6+VzPX2Os/3RnWtfNKXXmnRqhkmrRlx14/nyO7HtQtiya1Xnaw7Oizs62XKBipzqwCAIBeh+S0QGxaMlcV0yo0p81NUtu0I3F957LWG6M6NlRTLpuk6nu2+GtZn9IKfzNT9m3w8Zn4VybdGJXQ0ozv419c5i8fAAAAvRXJaR/VckOUnyZqedvrT8dfqlXTNmjmaLv8VmlehcpbktWODZ9+rbsBKVj3FpV0cs1pl4y6SPNtLwD+c6y72F5L25qsWuVm+S1BDOXuBq2odocFAADSFjt06FDcXnyajvr6eg0f3nlnPc8991zQHUs8Hvcl4Q4fPhw8phNDJnWtdOPNSgzXfFIaaZb1eFdS+WdHmhqx/Yo89pWa6EoqqdupqLlmmdkfysz+cIMviPj+m0Ihxmu7kho5cmSwLNGVVJTjTYV4HeJ1iNchXiff8dqupI4//vjgMbkrqc7i5cxptgwYKDV23q9rX2BvVJq6OnHNqWvWb3NzUla5G7cS3Vj1Go3mP+qA6IwYBgBAb0Fymi2nnCLtftnP9G0TZldIM8qD5vaY7Vd18fIcnsFs16VUb2H3BbtPAACAjJCcZsuYMdLTz/uZPm7URVrr7/IPprxf6+kS1sg26VtP10hveIOfAQAA6SI5zZZzzpH++Gep88ts0dfVvajgzi27TwAAgIzEamtr0x5bf//+/Ro8eLCfC2dvKigrKwseO5PLsWbTjTdbMZwy/p0q+t6/S5e8w5egIN3+ax35zv164ae/8AVO1Pff9gox3t27d2vcuHHaunVry7jPUY43FeJ1iNchXod4nXzH29DQoNLSUm3fvr1NfJ3Fy936RtZi+Pznpdf+Lv3PPF+AgvTBhdK7/lX64hd9gRP5/bedQoyXu/XDEa9DvA7xOsTrhNXlbv0o+MhHpJW/lF7a5wtQcP6yU/rZw9LMmb4AAABkguQ0m849V3rvJdI37/YFKDjf+rH0iY9Lr3+9LwAAAJkgOc22/3e9tPQOdwYNheW3f5K+/3OzD3zJFwAAgEyRnGbbxInSvHnS57/rC1Aw5v239NWv0oUUAADdQHKaC9/8pvRqszSfBLVgzP669Pp/kr7EWVMAALqD5DRXfrhKuuthackPfQH6rM8vlx57Trr9Dl8AAAC6iuQ0V8aM0ZG190jf+xVnUPuyj9+i+G+ekn7yc+l1r/OFAACgq0hOcyh+zjk68sBvpI07pH/5EjdJ9SWP/EWa8G+K1x7UkfvNNj7jDL8AAAB0R6yxsTHtEaL27NnTMmpKR2pra1VSUqJDhw75knC5HDEh3XjzMWJC8Re/qKJbb5UWzJK+cLn0uiHBMvQyu/ZIt9wlffvHal64UIcXLAiK+/r+m46+EK/thN8OIFJTU9PSCX+U402FeB3idYjXIV4n3/HazveHDRumvXv3tumEv7N40/vU6Lamr39dRzZsUPxPL0qnlkvXLJPu/wNj8fcGBw9LP9soXXWzNHqa4rtjOrJli5pMcgoAALKL4UuNfA/npUcflX70I+mn90jP10lvf7N05kiTtJ4oDezvK6FHvXbQ7EAvSX/dJf3hKemNpdKHprpRwN5stpdXkPtviL4QL8OXhiNeh3gd4nWI1wmr29XhS0lOjXxvrDb+9jfpscek7dv12rPP6tji/JxqTyWTutaBA69p0KBj/Vy4XhnvoEEqGmF+MJSapNSO/FVS4pe2VfD7b5K+EC/JaTjidYjXIV6HeJ2wuiSnKbBzEW8y4iXeZKniJTkNR7wO8TrE6xCvE1a3q8lpeqecAAAAgDwgOQUAAEBkkJwCAAAgMkhOAQAAEBkkpwAAAIgMklMAAABEBsOXGrmKoRDjjW3bFjzGbf+gXpTjTYV4nUKMl+FLwxGvQ7wO8TrE64TVtV1IMXwpelzRt76lojvv9HMAAACZoRN+I9+d0obpE/Fec400cqR0ww2+IOLxpkC8TiHGSyf84YjXIV6HeB3idcLq0gk/AAAAej2SUwAAAEQGySkAGHc8e0gf+ctxOv+Dl6t///66+pHXdOOTjX4pACAT9ph62R9jwTG1uLg4o2MqySkAGLPO6K+yE+JqmPV1/dtf+gVlN75lYPAIAMiMPaa+/XWx4Jh6zZ/c3fzpHlNJTgHAW/CGZjUeO1RbXpGWvpXEFAC648Y3FgfH1D++1JzRMZXkFAC8z/65WCe88IwuPUW6+pED2nOw8x5HAACpffKxI8Ex9QMjijI6ppKcAoBx69MHg8eB//t5fbnksN45rFg3cM0pAHRJ8jF10ZmxjI6pJKcAYFx75gB9o6RB69evD/rsWzp2oL5z7iC/FACQCXtMXf6WeHBMtSNIZXJMZfhSI1cxFGK8xZ/5jDRihJoWLvQl0Y43FeJ1CjFehi8NR7wO8TrE6xCvE1aX4UsBAADQ6zF8qZGrGAoyXoYvDUW8TpTjZfjScMTrEK9DvA7xOmF1Gb4UAAAAvR7JKQAAACKD5BQAAACRQXIKAACAyCA5BQAAQGSQnAIAACAySE4BAAAQGSSnAAAAiAySUwAAAERGrLa2Nu2x9ffv36/Bgwf7uXB2lJWysrLgsTO5HGs23XjzPdZsmL4Q7/HXXafmU09Vw/z5viTa8aZCvE4hxrt7926NGzdOW7dubRn3OcrxpkK8DvE6xOsQr5PveBsaGlRaWqrt27e3ia+zeBm+1Mj3cF5h+kS8DF8ainidKMfL8KXhiNchXod4HeJ1wuoyfCkAAAB6PZJTAAAARAbJKQAAACKD5BQAAACRQXIKAACAyCA5BQAAQGSQnAIAACAySE4BAAAQGbHGxsa0R4jas2dPy6gpHamtrVVJSYkOHTrkS8LlcsSEdOPN94gJLeJxxR5+WLHHH1ds+3Ydqq3RgLh9TceDFyTGNojF3GNHclXXOnTosPr3b9c579+elvoPkEpO9wURjzeFYL2DjpVOHaF4aani55yj+IQJbmE7Bb3/ttMX4rWd8NsBRGpqalo64Y9yvKkQr0O8DvE6xOvkO17b+f6wYcO0d+/eNp3wdxYvyamR740V++UvVVz1I8V+9nPplKHS28+SzhwpDTfPB/b3tdCjXjtoMpUXTbJdK/3+L9KBQ2r+4AfV/JFZil9wga9UmPtvmL4QL8lpOOJ1iNchXod4nbC6XU5OGb40j8N5/fSn0lcrTfa+S5p9ifRhk+S89Q1uGaLNJqhr1kv/+yvpnHOkL1dI7353Ye2/negL8TJ8aTjidYjXIV6HeJ2wugxfGmWvvCJd9RFpztXSjAlSzZ3S4o+RmPYm73yT9I1Pm+xlrTRljPS+90qfnesXAgCAbCE5zbHY738vveNcqfkF6a+3S/8+1S9Br9S/n3S9+aHxF7Mtd25Vv4nnKfb0034hAADoLpLTHIqtW6d+l1wszZ4i/ejL0kkn+CXo9f5ppPTzSsWmvFH93mO28WOP+QUAAKA7SE5z5Q9/UL+p5dLXPyl9eaYvRJ/ztWuka94rfegD0o4dvhAAAHQVyWkuvPaa9NFZ0pemS3Mv84XosxZeJZVPkK422xwAAHQLyWkufO7fpLeMkipIVgrGt+aa/00Hpeuv9wUAAKArSE6z7f77parVJln5lC9IrX71IsVik1umqav3+iXGrgc1NbZIVbv8fJYE73n5g6oP1n+HNvnyVDYtaY3NTks3+wVp26uqy/3rlzzlyzLl1tHmu0mst8vrbO8pLfWfse37dMGya6SvflX60598AQAAyBTJabZ97SvSwlnS68M7l7WJ34gZpdoYX694MC1X2Yzy7idH6Rg7Qh33hOaSv4lPVKguKT5NyDQhHKoZdy9XpX36RJ3q7WM2bL5XM8cuV3zh2b6gu87WgpoKlZtn1dvrXFFXnVMqfX6a2QdMggoAALqEEaKMbMUQ+93v1K/8g1J9tTQgpNNae9Zy9AZNrVmsGaN8mbX5DsUmyCSsszQhrE53mfUufbhMC6bXaenldZpz90VHJar27KpLnE0cviyQq5g6ZBPlcq29rFprpw/1ZRH33G7p9Ct05M9/VnzMGF/oRH3/ba8Q42WEqHDE6xCvQ7wO8Tphdbs6QlR6nxppKbpztfTR94Qnpkb9wxtUPW2SprRP8MbPUrx9QviwSVh9k3P7s5Ztmt2TlgXlS+5oaaqOJV8eMOoik5jaJO9sLUiRmNpkcN09G1RedWnbOKxRZZo6bYPWPuzO7rr3aX3flksG/Ly7NCERQ3Jd31RvYmxd3vElBgGbvCevP2iOT+/ShzbfVZt1GHa9LXEkNe0H8S/S0iVJl1+kc+b4NJPQXP5uxe680xcAAIBMmCS3KBhuKp0p3bqJzDnVsvaTrZvJetOta6dcrLejukW/+LlUfn7w2cPs2L4hjaZ1a4Nmbi9zzeq22XnR3JbrPm0i2NrsvlyVZlmbSwIWbVNJjWuS37jYrGdeu4SsS4aqZGy6Td8mAZ1XqbJN/rKAIP672iSS1Yuk+UH81Vo1bYUmdpb4jS9T5ZoNWpdYx+YtqkiV5Ldnks/kSxQ2jq3U3JbvyiS4E7Zplf+u4pvmqHrGvUmJ8gZV6Iqkz9C6DTpU/s8qvvdnR+8fGexndsrGPtl+ylVdO/V0DJnUtVNYXSt5PlcxZFLXTj0dQyZ17dTTMWRS1049HUMmde3U0zFkUtdOPR1DJnXt1NMxZFLXTj0dQ0d12x9T7dTZejlzmi1PPmnPX0uT3uYLumuSVs3211WOGqEy98zwZzcvK/MJ7tmaUzVJ1fdsaU1AF1/R0vReMmaSe5JX9nrT9Vow3s/uqlO1f5rQenbWJb2dO1tTTKLdcub2gRVJ30En1lRqhU8qJyxcn3SJwNlaEG+9TKF+xzb3pEXYNujERabmo49LL77oCwAAQLpITrPlcZOMlL3Rz4QLksVu3SBUpx1rzFuV5PsazL3a8YRJKseM8PMda9OUvmxbcMNRd024eI5Pwm0skzT1/DS+A3u5xKY5qrA3dPl4Ws9++jv/ffnce3xxdw07QTrzdLdPAACAjJCcZsszz0ilI/1MuOHnT1J5cvN0gr/GsfNrKEeoZJq0ZUdSM37WDNWUyya1bdrefIe7ZGDXFq1dk2ZCaD7LLYsmtTaXL8vS2dtE0/5mE4vSaNJPCK7ndbHUVU0yiaq/xtXe+b9mTkuvCWvnlQbVs2KMCe7vf/czAAAgXSSn2fLCHunk4/1MB0ZdpPn2OtDRyTcBuWs0q5Oa48P5BLKlGf8prZiR3MzfPcOnX+uuAU3cODT+Uk29p1yx0W3jC84AL9riP4O71KCtDdrhE+1NK81r3dNuck37MyeY9aV13e7RN2oNLzEJ6DST4Pt5aZuP02yDZSuCkqw4+QSzT7zgZwAAQLpITrPFdpvVwV36yex1j3VV2zTRNyfHYq67pHT77hw+fXFwY8+I4LVzVbF4eRa7WnLXi7auv1wz1/hFi+a23LE+fPoVqpRJYoM6t0qXzQnKA0ECrpam9HUX2/5OW5PV7rBN+1blxV35rsxkb4Ba5nsqMIn3qmn2h4L/DPNsf6eJZLWbBvRz+wQAAMhI7NChQ3F7Z1Q66uvrNXx45+ernnvuuaCvwHg87kvCHT58OHhMJ4ZM6lrpxpuVGK75pDTSLLvhal/QN9VvNsnp+LOzcpa2S4L+Vus0v323W1FzzTKzP5SZ/eEGXxDx/TeFQozX9nM6cuTIYFmin9Mox5sK8TrE6xCvQ7xOvuO1/Zwef/zxwWNyP6edxcuZ097sqL4/c294TyamRtBP7OKyaCemAACgy0hOezN7o0/KzvT7IndnfTB6VdaGLgUAAFHD8KVGNmIo/synVTSqqc8363fEdh81cZF9Zu/Uz+cwpxF0zTI1n/o2NS1c6Auivf+mUojxMnxpOOJ1iNchXod4nbC6DF+KHjdhoR3tyXbNVOCJKQAA6DJuiDKyEkOB3BCFNHFDVKgox8sNUeGI1yFeh3gd4nXC6nJDFHLH3ngVS+6XNbXEqFBpjT9/lKe01L/Wrifo+B8AABQcklNkRzAq1BxtDIYK7TyRTW2SSrgcAACAgkZyiiwp03Lb92gwVOilKsm4I3s7+lNpkJza0afKSrI1qAAAAOhNSE6zZfBxUkOjn+l9gib5JQ8G3TW5UauOPvu5ww4F6kdaatvsbodfLW8dhSl2r3b4M6Cp1+ua8Nu/z4SFrmN9O6rTgvGurNfab/aFY4/1MwAAIF0kp9liL+x9vpdfJ7moUjvmrVc8vl4bFyeNrx9YobW6NlgW3zRH1TNuVZU/O1q/+lbNHLvcLYvbO/ZX6Jbk5HXRBmlZ67KJsS2aEtS1w5q2q9tX2H1hxAg/AwAA0kVymi1nnSX99Tk/00tNq9Acf8ZywuwKla/ZoHUtzfNzND8xfv+oESp3zwL2TGe8pWP8Ou1IjMWfsPgK37XUUJWMtfOJEZ5GqGRa8KTv+cuz0pln+hkAAJAuktNsefvbpS1/lfa95gt6obEjWkebMglomX/aqeBu/kQz/V3a0lcTznQ9XSO9+LLbJwAAQEZITrPl9a+Xxo2Vfvl7X9ALPVHX2oy/q05b/NOO7VXVshUqr6r2zfrXaqpfUrB+ZfaBi6aY/1389wIAIFP89cym8mnS3b/1M71QUjP+ppWVqp42SVPS7Nqpenude7L5Xs1s36xfaO5+WLrsw34GAABkIlZbW5v22Pr79+/X4MGD/Vw4O8pKWVlZ8NiZXI41m2682YqhuKZGJ7/zndJffyiddZov7R2CcfE1R5WLVqgiKLHDkLq754Nme/OkZX7Xg5o6eoOmJsbPD5avsEukxcu1UXPNupYH16G69brnVtv5vaq6vFxrL6vW2sT1rL3db/+k+Puv1z+eeErxAQN8oRP1/be9Qox39+7dGjdunLZu3doy7nOU402FeB3idYjXIV4n3/E2NDSotLRU27dvbxNfZ/EyfKmR1Rg++QmzleqlH8z3Bb1D+yQSXfR+k9qPmywtWeILWvWK/TdJIcbL8KXhiNchXod4HeJ1wuoyfGlUXL9Auv2X0gN/9AUoGKselLZsl778ZV8AAAAyRXKabWecIX39G9LnlivoiB2FYWe9dK3Z5l+/hc73AQDoBpLTXPj856Vx75Rm3ewLom/CwvU06XeVvdbmqq9L0z8izZzpCwEAQFeQnObKj6oU33tY+mjvSVDRBUeapA8skk46TfqP//CFAACgq0hOc6WoSEeqf6Z4zWvuJpk9L/sF6DO210qT5yk+4CRp7T2+EAAAdAfJaS4NGaIjv35QOmWMdO6npDXr/QL0ev97n9mm16j57ZN15M67fSEAAOguktN8WLFSunGp9Nn/kj64UFr/uF+AXufezdK7r5OWmoTUbNemb3zDLwAAANlAcpovH/uY9MwO6a0XSOU3SO+cK32tSnr0aV8BkWT76t30lHTT7dLYj0vX3CpdXO625YcZBQoAgGyLNTY2pj1C1J49e1pGTelIbW2tSkpKdOjQIV8SLpcjJqQbb75HTFBTk4pWr1bRL36q2PrfSq8dkEpPU/yUExUb1HZUoSizgyzEYjE/5/nPbD60e4yQlPGGee2gVP+i9Led0slDFb/wQjW//0NqbpeQFuT+G6IvxGs74bcDiNTU1LR0wh/leFMhXod4HeJ1iNfJd7y28/1hw4Zp7969bTrh7yxeklMj3xurvdj27dIzz6jh73/XkDRGYkiMvJVOopWruta+hgYNSdrZrKKqKumEE9R86aW+JNrxphKsd9AgyY5eMWaM4rbv2hDsv636Qrwkp+GI1yFeh3gd4nXC6nY5OWX40vwP5xWmT8R7zTXSyJHSDTf4gojHmwLxOoUYL8OXhiNeh3gd4nWI1wmry/ClAAAA6PVITgEAABAZJKcAAACIDJJTAAAARAbJKQAAACKD5BQAAACRQXIKAACAyCA5BQAAQGQwQpSR7xETwvSFeIs/8xlpxAg1LVzoS6IdbyrE6xRivIwQFY54HeJ1iNchXiesbldHiErvUwMAAAB5wPClRr6H8wrTJ+Jl+NJQxOtEOV6GLw1HvA7xOsTrEK8TVpfhSwEAANDrkZwCAAAgMkhOAQAAEBkkpwAAAIgMklMAAABEBskpAAAAIoPkFAAAAJFBcgoAAIDIYPhSI9/DeYXpC/EyfGk44nWiHC/Dl4YjXod4HeJ1iNcJq8vwpQAAAOj1GL7UyPdwXmH6RLwMXxqKeJ0ox8vwpeGI1yFeh3gd4nXC6jJ8KQAAAHo9klMAAABEBskpAAAAIoPkFAAAAJFBcgoAAIDIIDkFAABAZJCcAgAAIDJITgEAABAZJKcAAACIjFhtbW3aY+vv379fgwcP9nPh7CgrZWVlwWNncjnWbLrx5nus2TB9Id7jr7tOzaeeqob5831JtONNhXidQox39+7dGjdunLZu3doy7nOU402FeB3idYjXIV4n3/E2NDSotLRU27dvbxNfZ/EyfKmR7+G8wvSJeBm+NBTxOlGOl+FLwxGvQ7wO8TrE64TVZfhSAAAA9HokpwAAAIgMklMAAABEBskpAAAAIoPkFAAAAJFBcgoAAIDIIDkFAABAZJCcAgAAIDJijY2NaY8QtWfPnpZRUzpSW1urkpISHTp0yJeEy+WICenGm+8RE8L0hXiLP/MZacQINS1c6EuiHW8qxOsUYry2E347gEhNTU1LJ/xRjjcV4nWI1yFeh3idfMdrO98fNmyY9u7d26YT/s7iTe9TAyFiO3f6ZwAAAN3H8KVGvofzCtMr450wwQ1VOnmydMYZRw9fOnu2mkePDs6kRiJe9ofgkXhTx8vwpeGI1yFeh3gd4nXC6jJ8KXrGypVBAqqSEumWW+ye6MptWSwm3Xabmq+6ypUBAAB0guQU3WPPmI4aJQ0cKC1dKq1eLd14o/TjH7uyG25Q/PTTfWUAAICOkZyi++64Q2pslF5+2RcYDQ2u7OqrfQEAAEDnSE7RfYmzpyee6AsM+9xed2qvQwUAAEgTySmyw549TT5zap9z1hQAAGSI5BTZkXz2lLOmAACgi0hOkT2Js6ecNQUAAF1EcorsSZw95awpAADoIoYvNfI9nFeLeFyxhx9W7PHHFdu+XYdqazQgbl/T8eAFibENbDeinclVXevQocPq379d57wvveK6kBo0wBdEPN4UgvUOOlY6dYTipaWKn3OO4nawgRQKev9tpy/Ey/Cl4bIdb+y55xR75BHpyScV22Wev/KyeZMmvzS1yBwfjF51PDPSjqGoWDrxddLo0xQ/+2zFzztP8dNOcxWSFPr+m0C8Tljdrg5fSnJq5HtjxX75SxVX/Uixn/1cOmWo9PazpDNHSsPN84H9fS30qNcOmkzlRelvtdLv/yIdOKTmD35QzR+ZpfgFF/hKhbn/hukL8ZKchstKvOYPVNHKlSr68V2KPfq4NH6s9NYS6QzzXZ9o/nAVp7du5FCT2c4vN0jP7pa27pA2P6H4uePU/OEr1GwHVxlq/k4ZBbn/pkC8TljdLienDF+ax+G8fvpT6auVJnvfJc2+RPqwSXLe+ga3DNFmE9Q166X//ZV0zjnSlyukd7+7sPbfTvSFeBm+NFy34rV9Ht90k/TNW6SL3inNnCJ9YKI05Fi3HNG17zXpZxulVeukB38vfWF+cOnW4eLiYHFB7L8dIF4nrC7Dl0bZK69IV31EmnO1NGOCVHOntPhjJKa9yTvfJH3j0yZ7WStNGSO9773SZ+f6hQBCVVdLZ5VKT/2ftOHb0n1fMcnpRSSmvYXdTnZ72e1mt5/djmZ7Ft1zj68AZB/JaY7Ffm9+ab7jXKn5Bemvt0v/PtUvQa/Uv590vfmh8RezLXduVb+J5yn29NN+IYA27M2RM6abxxnSz5ZI48/2C9Ar2e1nt6PZnsVXzVKxPRsO5ADJaQ7F1q1Tv0sulmZPkX70ZemkE/wS9Hr/NFL6eaViU96ofu8x2/ixx/wCANbx15tj3o9/JD3yHelj7/Ol6BPs9jTbteie1bQgISdITnPlD39Qv6nl0tc/KX15pi9En/O1a6Rr3it96APSjh2+EChw112nQY/+n3T/16W3jfGF2fKUlsYmK2anJU/5MuSd3a52+/7uN8H2BrKJ5DQXXntN+ugs6UvTpbmX+UL0WQuvksonSFebbQ4Uuu99T7pjpWI/vlF6/Um+MJvO1oKaClVWVSu+kMsEepTdvmsWBds72O5AlpCc5sLn/k16yyipgmSlYHxrrvnfdFC6/npfABQge/21beb9/hek0tf7whwYdZEWTHddGqGH2e1st7fd7lx/jywhOc22+++XqlabZOVTvgAFY9k10le/Kv3pT74AKDAV5sfZpz4gvX+iLwhXv3qRYpc/qHo/n9CmfNeDmhpbpKpdwSLPN+uneG2XpHyPVpuWdHD5wOY73OUFHbw+54IY7tAmP5talr+z9uz2ttvdbn8gC0hOs+1rX5EWzpJe33lnuOhjzimVPj/N7AMmQQUKzYYN0n33STdc7QtyY9OSuapYvFwbx1Zq7uq9vjQzYYlxZvaqatkKldvLC+KLNWOUL845l2gu3exn05CN76xTdrvb7W/3A6CbGCHKyFYMsd/9Tv3KP2iOfNXSgPQ6zkUf89xu6fQrdOTPf1Z8TNsbQaK+/7ZXiPEyQlS4zur2mzVDsX8aIH3lE76kYzZBHHHPJNXdfZGSu+IOK0+lftdeDR+VefN+m/ewZ05Hb9DUmkwTTJOcXl6uHfPWa8F4X5QXNjmdazJO/772zOkEaWN8llIPstxWV7+ztFz/fcX/flBH7qjyBa04nhVmvF0dISq9T420FN25Wvroe0hMC9lpJqG5/N2K3XmnLwAKgPnDE7vrx9Ls9/qCLDmqyT3pTn0zrdiVSLJsojhZU5fcYeonloc0dZtkbsSMDdKaSo1IPnv6cKKJ3kxJzfipm/VdYjpzjVQxIWl5EK9fR3LcQfkdWmrXZZbZs55uvQ8GcbfGm/z5UsVv33euKswz+77JZ0932LPB/rVT25wdDfvOuhpDB8z2D/YDsz8A3WGS3KJguKl0pnTrJjLnVMvaT7ZuJutNt66dcrHejuoW/eLnUvn5wWdHASv/ZxXf+7Oj948M9jM7ZWOfbD/lqq6dejqGTOraKayulTyfqxgyqWunno6hw7q//rU08W1SaYZt2zZBbEmE3BQkjim5xGxL0Iy+XvGaCm2Z0PZaz+pF0ny7LF6tVdNWaGKqa0XHz1Jd1SRpWkXS2dkNmrm9rGW95YvmdtJsPlQz7rbvYf67t/QaYJK60ZUq22Tff715D2nm6OTkboW2jHGxt5xpXWQ+67KkeGNbNCWIf7kqTf1bjmqCt+9rl0mViTOngRVaq2td/JvmqHrGrf576fw7yzyGDtjtb/YDuz+030fyvk+2mzKpa6eejiGTunbq6Rg6qmu1L+tsvZw5zZYnn7Tnr6VJ5gCNwnZRmfTo49KLL/oCoI/bsF6a0oVjn00Qg0SodQoSx1R2bdHaNXM0P3GX/qiLNH/xBq19uDV5Kq+61DdtD1XJ2OBJmiZp1WzfLdWoETL/gzO3eYsqNEdTfMI4fPoVQXK3riXJnaSp57drTl98hb+UwMe7uMzHP0IlJvFNX/L3MkLl7lla31n2YvDsfmD3B6AbSE6z5XGTjJS90c+goA07QTrzdLdPAIXgsS3S28/yMzmyq07VJtmbmHSWdeIiqXp7na/Qs+p3bDPJtkno/Hwk9MR3ZvcDuz8A3UBymi3PPCOVjvQzKHhjRkl//7ufAfq4Z8y+nmmTfqaCM4JztLHdmdaodMQ/vKRUWlOnSI0T1xPfmd0P7P4AdAPJaba8sEc6+Xg/0x1tL15vf0F6h33udZl7z8RF+sHF9C3996WabEz+BoROrkcKumwxr8mk25NcCL63o7qOSfoMLTdeuLJux3vyCWafeMHPAH3YwYPSK/ukU070BTkyqkxTpyVfA+mOW50dg/JmfFmbZvz61Xe1aebvET3xndn9wO4Pdr8AuojkNFtst1ndvUs/SJCSLl43U13VNk3M9I7JLpmkkuQTH+Nntf7K3jTHFCT/+k6vyxL7eebOkFZtshfh5+MzhDBx3PJE8s0PYUrbfgfdMaCf2yeA3uzZZ6XZs91jmMR+nvNeStzNQGUzyv2PZNd359oujBQ1/PxJKg9uxsrmcckNq7rF3r1v4hthj301aR4rM3K2pix2d+t3nmRm7ztLW2I/4PiHbogdOnQobu+MSkd9fb2GD++s5znpueeeC/oKjMfjviTc4cOHg8d0YsikrpVuvFmJ4ZpPSiPNsm50QG3P7k3U8nZNLvZMXrnWXlYdHFBS1+m+TUvuCAYPKFm9SCtKFrftty9lP3pt4+rcXtXvGqrhOW756zrzeZZs0ZSFF2nHkkXaMbubnWpfs8zsD2Vmf7jBF0R8/02hEOO1/ZyOHDkyWJbo5zTK8aaS9RguvDC4frr53e9W8803q1+7/nuDG0GPP1569T5pyLG+EAVr32tmf3if2R9eNfvDEF/I8cwqxHhtP6fHm+ODfUzu57SzeDlzGhlPad0iqfLi9kmn/eW7vl0CWBc0Pbtfwu26BQnOvqZa5puwQ/oBnGASU5t4Dp/eLjHt1JbQPvESTfrBdPkWKZHsJZrQV7deOmDPACTXDzsj4C5rSL9fvqB+u2XB+wSXRvjvJHgv8z2bxNT+V5mwMJ+jvQARZ39gvfyyih58UP3e8Q5p2rSOz6T2NfbHea6G/QSQEslpVOyqM2leu6b1MC390q3XxsUbNHNe4sBpkrQO+9lLsx/ADFTPqPN94rVbX9DRdWnLpQB22LwRbd4rqV/BoF++cs31/fTZrmSqZ9zbJu420uyXzyahE21zfiKGxaau+SOjoIsXAGmZPFkab36xvvJKkKTKJKk655zCSVLtJU5pjFYFIHto1jeyEkN3m/Xt2cQ0htBr36xvE7CWYfiOan63ZxQTw9wd3Qyf9iUCaTbrJ6/PPr9lTFKTf/D56kxibNbR/rO2n0/5fk77mNvOJ8ek4HnboQXd92FvUnDrPvozZM3Hvm4+wDPSmWf6gsyHozt48KAGDBjg58Llezi6MH0h3sbGRj3wwAO65JJLWpZFOd5UchKD7bP397+XjhzxBcaJ/gYom7z+5Cc068OhWT9UIcbb1Wb9WG1tbdpj6+/fv1+DBw/2c+HsdVtlZWXBY2dyeTBPN95sxHDCF+dr0BvMRunyNafJiaQvSqF9cpacnCo5UQ2W9lRyOiJYZof2a2uSVtkEVPlITuvMZ79LJYl1Buz3kVyW2+T04K7DOmiSnIRm/2OtKBYLHjuTdjKSwXpzVdfqC/G+av6gLlmyRIsWLTJ/V90f1ijHm0ouYjjmj3/UwJ/9TLEDB3yJ0a+fmocO1YErrtDg//xPklM4PjndvW2b4knJSD7/HqcS5fwhlb4Sb0NDg0pLS7V9+/Y28XUWL2dOjazEkLMbotqWt6/Ta86cJuvRM6d5Sk65ISpUlOPlhqgQJ5/c2jWaSUp10klmH79GuvFGe2qEG6LQijOnoQoxXm6I6gMmzHZjOre5GcgkahMXJQ2t15EI9bM34WJ7HWnrdaPBTUjtblbKraGactkkVSxrvZFh05K5qpg2SVNazqQC6NRtt7nE1CSlcfvHZMECm8W7xBQdsD9+Jx/dL7X98Z3XYyHQ+5CcRsmoi7Q2ntwnnZmCM4jJTdMdyVc/e2kYP8v30dpzsdieB4IbsXwMwc1R3NgAZObLXzb/mYar2Tweee45ktJ0bb5XM8em0TIF4Cg06xtZiSELzfroQ2jWDxXleGnWb2f9ejeZhDS0Ls36SEazfqhCjJdm/Z422HzpDY1+pqe55qSeHjK0oO03+8Kx/KFGL2fvxO/sTGnipoaGpJul+hR3PJ26+kG19Kds+z2118onz/vaLc357ZbZ6+ODS7b6erN+Yj9I4+YcIAzJabbYXwDPp+44Pv9cx/2ZdaaPrLL7wogRfgbow+zducNPMfu8v2Gqj2rt03m5Ku3Qp/Ok5Xa+piIYCnWFPxmwaUm5a84P6lZrlVwfz/aegjJXpW+z+4HdH9K8yxxIhb0nW846S/rrc34GBe8vz7bp4xTo084y+/qfd/qZvqm86lJ/zfwIlUwz85eVuevXR41ISjrtSH/JN7AO1Yxl7kbXmElm52S7V5AosvuB3R+AbiA5zZa3v13a8ld3vQ0K29M10osvu30CKATvGC9t/oufKWDBSH+lKUb6m6ONhXIzpt0P7P4AdAPJaba8/vXSuLHSL3/vC1CwfmX2gYum0KyFwvHud0v3P+pnClhwFnWbduzy84XI7gd2fwC6IdbY2Jj2CFF79uzRybYz5k7U1taqpKREhw4d8iXhcjliQrrxZiuGoqVLVfzkBunHrXdoowD987Vq+sg1ap4zxxc4Ud9/2yvEeO3d+rankZqampa79aMcbyo9Fe8xo0ZKdy6QLjzHl/QV7QfraD/fdnS/VAODtOlSqoNBRnq9hx6Trlyqw7ue9wWtOJ4VZrz2Lv1hw4Zp7969be7W7yze9D410hL/yEektQ9Jf+Pa04L12z9JW7ereeZMXwAUhuarrpa+d5+fK1wTFlZr1RNz/d367RLTvs5s/2A/ALqJfk6NrMbwyU+Yo3S99IP5vgAF5f0V0rjJ0pIlvqBVr9h/kxRivPRzGq7TujU10mmnSZu+I41/sy9Ewdj8Z5OZf8YmANLo0b6wFcezwoyXfk6j4voF0u2/lB74oy9AwVj1oLRluxtRByg0NiGpMD/OFt7mC1BQ7Ha32z9FYgpkiuQ02844Q/r6N6TPLXcdsaMw7KyXrjXb/Ou30Pk+CpdtMXjhgPSVH/kCFAS7ve12T9FiBHQFyWkufP7z0rh3SrNu9gXo0+yF4Fd9XZr+EYlrTVHovvs9acEPpLvW+QL0aXY72+1ttzuQJSSnufKjKsX3HpY+SoLapx1pkj6wSDrpNOk//sMXAgVs/Hhp9WrpysVS9QZfiD7Jbl+7ne32ttsdyBKS01wpKtKR6p8pXvOau0lmz8t+AfqM7bXS5HmKDzhJWnuPLwSgK6/UK//5n9JU88Nt+U98IfoUu13t9v3hD4PtDWQTyWkuDRmiI79+UDpljHTup6Q16/0C9Hr/e5/Zpteo+e2TdeTOu30hgIQDH/6w9OtfSzeb/x+2Bal+r1+CXs1uR7s9zXY9cu+90qxZfgGQPSSn+bBipXTjUumz/yV9cKG0/nG/AL3OvZuld18nLTV/cM12bfrGN/wCAEe55BLpsT9JsZOlN8yUlvxQemmfX4hexW43u/3sdjTb8/AfHlX84ov9QiC7SE7z5WMfk57ZIb31Aqn8Bumdc6WvVUmPPu0rIJJsX72bnpJuul0a+3Hpmluli8vdtrRnhgB07KSTpNtMUvOzn0uba838B6VZX5XueoizqVFnt4/dTnZ72e1mt5/djnZ7DhvmKwHZx/ClRr6H81JTk4pWr1bRL36q2PrfSq8dkEpPU/yUExUbNMBXij47yEIsFvNzSWxCl6q8h4XGm8prB82B+UXpbzulk4cqfuGFan7/h9TcLiEtyP03RF+Il+FLw2Ur3tgTT6ho7VrFfn2fYo8+Lo08RTp9uHTicVJxeuvOhYyOD2Fea5SOHehncisr8abSZLbzyw2ue7zn/6H4ueMUf8/71Dx1quJjx/pKhbv/tke8Tljdrg5fSnJq5HtjtRfbvl165hk1/P3vGpLGSAyJkbfSOTDlqq61r6FBQ5J2NqvojjukoUPVfOmlviTa8aYSrHfQIMmOXjFmjOK279oQ7L+t+kK8JKfhchKv+T+pp56Sdu1S0auvBj/cOxKZ44ORar3Fn/mMmr7zHT8X/XjbC+oWFyt24omKjx6t+JveJJNR+KVtsf86xOuE1e1ycsrwpfkfzitMn4h39myZjS/deKMviHi8KRCvU4jxMnxpOOJ1OlyvTQCT/u5FPt52iLcV8WanLsOXAgAAoNcjOQUAAEBkkJwCAAAgMkhOAQAAEBkkpwAAAIgMklMAAABEBskpAAAAIoPkFACM724/pF+9MkgnnXRS0GH5U6806ea/HPRLAQCZsMfUn/2jKDimWpkcUxkhysj3iAlh+kK8xR//eNAJf9PChb4k2vGmQrxOocX70mFp+uYDiv/hXlVc+V599s/FuvO8ATprsOtUPWrxhonq9xumL8V7TP/+Opz0dy/q8bZHvK2It/t17TF1xiONav79L3TTrA/omj81B8fUNw2JdRpvep8aAPq41x0jffusw3p5zMQgMf3ft7uDKAAgc/aY+t2xseCYahPTTI6pDF9q5Hs4rzB9Il6GLw1FvE6U433ouVc096kijRgglY/ur7mlAyIdbyrE6/RIvAxfGop4CzPe39Uf0CcfO6KRA2O6bNQxwTHV6ixezpwCgPH0vuYgMR1z/ze1/C3N+kntEd1d4w64AIDM2GOqTUztMfV75xRndEwlOQUA4/d7j+j2sYf1fz/8Tw3VQd058VgdcZdRAQAyZI+pd769KDimntKvKaNjKskpABgfOb2/RhUf1N69e4NLkob1j2nG6ek1qQEA2rLH1JKBzcEx1crkmEpyCgAAgMggOQUAAEBkkJwCAAAgMkhOAQAAEBkkpwAAAIgMklMAAABERqy2tjbtsfX379+vwYMH+7lwdXV1KisrCx47k8uxZtONN59jzXakL8R7wrXXqmnUKDXMn+9Loh1vKsTrFGK8u3fv1rhx47R169aWcZ+jHG8qxOv0RLzDR4xQfdLfvajH2x7xtiLe7NRtaGhQaWmptm/f3ia+zuJl+FIj38N5hekT8TJ8aSjidaIcr/1BPXLkyGDZqaeeGpRFOd5UiNfpkXgZvjQU8RZmvPv27dPxxx8fPB533HG+tPN400vJAQAAgDwgOQUAAEBkkJwCAAAgMkhOAQAAEBkkpwAAAIgMklMAAABEBskpAAAAIoPkFAAAAJERa2xsTHuEqD179rSMmtKR2tpalZSU6NChQ74kXC5HTEg33nyPmBCmt8W7d8sWDRs2THHb6b5X/PGPB53wNy1c6Euk+I4dQZ2ejpf9gXiTpYrXdsJvBxCpqalp6YQ/yvGmQrxOT8R7TP/+Opz0dy/q8bZHvK2INzt1bef7Nk/Yu3dvm074O4s3vU8NpNA0erSKliwJEtLYzp2+tJUts8uK77jDlwAAAHSM4UuNfA/nFaZXxvvXv0oXXugKPvxh9/j610uvvCLddlswmziTEIl42R+CR+JNHS/Dl4YjXqfD9TJ8aSjiLcx4Gb4UPWPyZJeUDhwo/fjH0n33Sd/+tktMbdkNN/iKAAAAnSM5RffNnSs1Nrrnr73mHi1bduONfgYAAKBzJKfovsTZ0xNP9AWGPX3PWVMAAJAhklNkhz17+vLLfsZoaOCsKQAAyBjJKbIj+ewpZ00BAEAXkZwiexJnTzlrCgAAuojkFNmTOHvKWVMAANBF9HNq5LvfrxZ1ddJvfytt2SJt/5uO1NaqX1OTXxgu8b3GbJ96nchVXevIkSPq16+fn/Ps3frHHutnnEjHm0Kw3kGDFBsxQip9o3TuuS7xHjbM12hV0PtvO30hXvo5DUe8Tofrtccif1yyIh9vO8TbinizU7er/ZwyfKmR7+G8im67TUWrfqjYb38njR8rvaNUOnO0dOrrTFI0wNdCj7F/XA4cNJnKi9Jfa6TfP21+QPxF8X+5WM0zr1LzFVf4ioW5/4bpC/EyfGk44nU6Wi/Dl4Yj3sKMt6vDl5KcGvnaWEU/+IGKv/5V6aQh0uxLpA9Plk5J6n4J0VXzD+nu9dKKXyle1F/NX1oQJKmFtP92pi/ES3IajnidjtZLchqOeAsz3i4npzTr5+E0tx13/t8+I+18RrphlnSFH+4TvdOKe6UbfyhNPF+Hb/0P82PjpL69/xZQvDTrhyNep8P10qwfingLM96uNuunl5Kjy2K//KX0zndIbzxR+vP/kpj2BXMulf5ymzT4NR3zrvGKbdrkFwAAgO4iOc2hoh//WP0++EHpax+XvjXXl6JPOG6Q9L9flD71XvX7l/dIv/mNXwAAALqD5DRXHnhAxTNmSFULpU/8qy9En/PF6dI3rpEu+5D02GO+EAAAdBXJaS7YLqKuvkr6r89J09/tC9Fnzb1M+sKHzTafZfur8oUAAKArSE5z4dp/k973Dpe0oDDccLVUMsxse/ODBAAAdBnJabZVV7uO9b/5aV+QylNaGpus2JKn/HzCXlVdPllLN7u5TUtS1Wln14Oaatd1+YOq90XdEqxvkap2+fmUXJyxTutlR1rfQ8YSnyGL677lGuk735V+9ztfAAAAMkVymm22H9OKmdLxbUdJSmnRXd1O7jatrJSqlmuVKjV39V5fmpmMk7/N92qmKrSxSpo5L0tJcRsueU8k6bkxVDPuXm6+NeOJuux8hjGvlxbMkr7xNV8AAAAyRXKaTfffL9U8J302veb88mndTe72qmT2eq2dfrZJtNZr+fm+OMfqR12q+N0XacL0xYovK/OluTNh4XrFF57t57LpbC2Im3Wbz9J573Bp+txU6Rf3SX/6ky8AAACZKLK9+tvOU9OZ0q2bGCkg1bL2k62byXrTrWunXKy3o7rNq+6QZl0UfPZ0lM27QpVrOjvjWdfa/Ny+GX3zvRoxOrFssuY+7Mt9k/XU1Q+6ywfsFNLsX796kSYuMk8WzW179vThO1rW2/6s6o6V5a3LVta1JHbuDOwdre/ZPt7EJQh2utzUC2Js/9lt7HNVYZ5VTHBnT5PP7Hb6HsmS389Mbc7EtluW/Bkzeo/2TjrB7APvUXNV1dH7Rwb7mZ2ysU+2n3JV1049HUMmde0UVtdKns9VDJnUtVNPx5BJXTv1dAyZ1LVTNtabr33HTrlYb67q2qmnY8ikrp16OoZM6tqpp2PoqG77/xd26my9nDnNoqJ775Uuy+T05dlasGmOqmfcq9Bu3BdtkJatVzy+XhsXb0g60/qUlk7YplU1blk8xXqqZ2xQSbC8Omj2H5Gi6X749MVmvebJ4uVJZyfN+2wvc+utqVC5SVwTiV2QzD5RoTq7LL5clWZZmwRz0Tb/nu3jNUnnPHsJQrVb7zyTfK4JFrTT2txeuWm9FowPCtsKfY9k7v3KzDoSn2PLhDv893P0svL2l1ik9R4hPvQuxe79mZ8BAACZKLLjoNrhptKZ0q2bGFs11bL2k62byXrTrWunXKw3tO4TT7hh6857U/DZ0zZ+lkl+VmhiisQxsPgKzRjlnpaMmeSeBGyT9OKWZfU7trknyVpeaxK+eXNMwrUlPAluY5JWzfaJ6qgRam2436t192xQ+WVl/mzp2ZpTNUnV92xpTdzC4t21RWvXTNLU84e6+fGXatU09zRjod/J0SqW+aRy1EVaG5+lCUGpTYCTEt9ddar2T1tk8B5HeXeZYk/9Vce8+GKbfSST/cxO3d4nU0y5qmunno4hk7p2CqtrJc/nKoZM6tqpp2PIpK6dejqGTOraKRvrzde+Y6dcrDdXde3U0zFkUtdOPR1DJnXt1NMxdFS3/f8LO3W2Xs6cZsvWrdI5Z/qZzEyY3fbsZHpc032iWXruPb44SfmYEf6ZYZLMcv+06+q0Y41UVuITzEwECWCpSnzCl3s2AfVnjBPN80mXNgRN94nyZduy8N0kGXKs9OY3cN0pAABdQHKaLTt2SG/o4m01oy7S8qpJqlh2r8xa0mPvmF8zRxtts7SZ1s4r9QtaVW+v88+MVGcHMzZCJdOkLTu60CtAkBxv0450r93MCneGNGi6t5cgJK7v3fWgblk0qfWSiGUZnhlNxxvMD4Nnn/UzAAAgXSSn2fLiC9LJx/uZzA2ffq1WaUXIdZhhEsneXlUtWxGUtNHSjO+XLy7zzdpdNVRTLktuxn9KK2YkN/N3YFSZpk7boLUP+8Q2SK7d09xo3x2VS6xbz/puaEmUbXdc3U/c27E3Rr34op8BAADpIjnNlsOHpWP6+Zmu8NeFpiu4ZnODZgZ3698qzas46sxk+WLplqDpujzol7QupDumCRfb61HnptWRf3AD1dhEU/lcVSxerrXT02nmN59vWYU0w9/p/8CIDq45PVtTTOz2bv2j7+ZP19laENwEZeP038HY5e4601EXab5fv1227mJ7A1ZrspoVxxS7faKrnn1WJ1x7rXTbbb4AAIDCEDt06FDcXnyajvr6eg0f3nnT9XPPPafTTz9dcXuDUCdslwFWOjFkUtdKN96sxHDNJ6WRZpkdxrLH2etRy7X2suo0E8ee4GLcMS/kjvze7pplZn8oM/vDDb4gzf3MXgpw3XXSj3+s5lNOUdHu3X5BuFz9H8qkrpXX/28pZCPeuro6jRw5Mlh26qmnBmVRjjcV4nV6JN5YzN0Y60U+3naItxXxZqfuvn37dPzxxwePxx13nC/tPF7OnPZ6tvk6P8OIdk+7OINm/Ul5vEEq4mxSOm2aVFISJKY68UTtu/56vxAAgMJBctrrte1SKrpst1PylyGYacIKVW7qDXHnWPukNGHgQB244go/AwBA4SA57ZPcXeo91aRvO+p313m2HZXJXq/q7px3U59szk9XWFJqnXii9NWv+hkAAAoL15waWYkhUtec9rxNSxZpx+wCPjMacs1pbOdO9Vu6tPMbnSZPlvm/qf79+/uCcIn/ZzF7vVsnclXX6gvx2rKNGzdq4sSJLcuiHG8qxOv0SLzr19sKfqYP/X1LgXgd4nXC6nb1mtNYbW1t3PbUn479+/dr8ODBfi6cvamgrKwseOyMHV/VSieGTOpa6cabjRhO+OJ8DXqD2Sgkp7BMctowpFQN8+f7ArfvFNfUaODmzTrua19T0d69ih086Je2ipt9tuELX9AB8zhgwABfGi4qf9wPms/S2+N99dVXtWjRIi1ZskRDhgwJyqIcbyrE6/RUvMmX4/SVv2+pEK9DvE5Y3YaGBpWWlmr79u1t4ussXs6cGlmJoSDOnKbXC4Bt1h9h+z+tinJvATnW2d36tlnfnmVZuFB64QWpsTFYFhg4ULryStV/9av8cs9zvAV/t/6uKmn0WqnGTMmtHktMIrboQ4rvuFuxO+zZxY1m3+2g12SznubRM1U0bZV09wxfmFpBfb8dIF6HeJ2+Ei936yMibMf80qpNtk/TW3tBLwI95IwzpKvND5mHH5a++12TCJhMwCallk1Uf/GL4Cwr0ONWTzWJaaWaD92tI6/3ZZ1ZOVP6zs/NE/O4urPekwGgLZLTbLEtPJ2fKO77do3QHNt7wPiLtDZ+rab44oKTRqtBICxJfeEFHffNb/pKQA/ZvNT8yDSPNQvU5ErSYJLR2XH947K3S3eb/wfn+2IASBPJabYcd7y07zU/04vtelBTbX+kq+9Q4o77o0dp2hIMDeqW3+GHSHU2rSz3o0fZ6Vat8+Vh602+s7/ro0FFUEOj2SdamzA6lSJJHfDQQ675H+gJtol/QoX5T92uiT+wQ7rc/CK3113Gppq6vjhglo2OafiIEW75rkTTnUla7WuWmIQ3eJ2dlqrYLw3YZDixLFEvqccPAIWB5DRbRo6UavtKcrVBM+8ZoTrb5VONG3I0uUuo6hl1mhJ0B1WtVdNWaOKSp9yCzXdo4hMV7nVm2rjYrGelXxYw89vLgmXxTXPMeso1V9cG83VVk8z8vW0S3V5t1wtun8hUUpIadMLP8KXoEeZ/4uiZUlWdlKrLt0UmYV0Wdy0Ei6uleSaRDdgEdGLwunp7Q+ymSpPgtkteF5nJvi5ulk+rUNFXEgcX855BMuzXO2aLLwdQaEhOs+Wss6Q/7/QzvV/lvIsUnO9IjEP/QGuSWV51qdytEENVMjZ44oyfpfjd/nXaqx1PBE+STNKq2X58/1EjVG7mp57vbpgaXlIaPPYZf94hvfGNfqYLTJIa3PV7442+AMgXk2yONgnmtHLzw3Ruu7Oi3uL5rWdTx5h6CbvWSWvM/Pn+bOn4OWY9Zn0PJ113WmXKAqZO8vFjs21nMclsIhme3trTBYDCQnKaLe94h/TENumFV3xBb9Z2WNGSMZP8s04ETfetTfprfXHBeeLvUuMh6ZxzfAHQyyzeKN1t/gfbs6Kjl/rCNOwyP8pUluIygDTs2GIS2RI/A6CQkZxmyymnmF/8b5fu6wsXSG3QjqSzJTu2b/DPOrZpZaWqFy93zfbxxZqffFakkPzyEenii/wM0NuUS7N9N1ELXdO7lqR5wc0om1yaJLMrvXSUmKR2jU1uARQ6ktNsmnqFdFd6iVzUtTTj73pQtyySKi/2zfGdeaLOXnXW8rqCZPeBqdP8DNCbDZeWrZIWTdQxdyU1zYcZNaVtM/7mFW2b+Tsy3vbtYRLhxO/71bf4JwAKTZHt1d92nprOlG7dxEgBqZa1n2zdTNabbl075WK9HdadMUP65Ubp0aeDz997TVKl7nLN86MrparqtMbBnzC7QuVrKt3d+vOk+VWTWpPVQnHfI9LzL+rwFVe07BfNixap+aMfzWg/s1NW9sl2U67q2qmnY8ikrp3C6lrJ87mKIZO6dspLDEdsh1HNih9JqnfqNDXd8SFp1mk6ZnWdqW+rHGlZ3tRkCpqb1BTMD9PhVRsUnzHC3a0/oULxh+8063B14/a1TX69ZnLrivsY3q7DD99kXuPv1m/6UNA7X3Is3fpsnUy5WG+u6tqpp2PIpK6dejqGTOraqadjyKSunXo6ho7qWu3LOltvrLGxMe3hS/fs2aOTTz7Zz4Wrra1VSUlJMFZxZ2yAVraH0rLSjTebMRTPn6+i+qekuxb6kl7GXjc6eoOm1hTwuPjdceEX1HRxuZqvu07FS5Yo9v3vK1ZfryMPPKCm812Hj1Hef5P1hv9vybIRrx0hyo5uV1NT0zJCVJTjTaXvxLtZ/fovk3a0dv4f7XiPRrytiLcw47UjQw0bNkx79+5tM0JUZ/EyfKmR1RhefFEqHSN9//PS1At8YS9Cctp13/2p9O2fS1fOlP7nf6SXX3ajPY0fL23a1Dv23ySFGG/BD1/agZzHu3uNNHqHFF8QzAcjU80oa503IhVvb/t+iTd4JN78xsvwpVFhfiHolm9K//5fUu0LvhB93p+ekT77bekf5sfJ175m/+e5xNSO9vTVr/pKAEKNmiEtrmjthN+PTAWg8JCc5sLHPiZ90Pzqn3Wz60y6Nxllhx3lrGlG/t9/S2+/xrZnSC+95JLShHHjpMmT/QyADi30HfAHU6qRqQAUApr1jVzFEL/sA4od3ivdc5N5QT9fij7jxttcU77t29Zfb9OG3UfsTXJ21Ccj02uIGhoa2jSDhMn3NURhen28V1+tugEDaNYPQbwO8TrE6xCvE1aXZv0IOnL3WsUHnSJNmif9pe+MHgXj2XrJ3qW891XXBJlKP36Q9Bq332626bN+BsiA3W/Wr3eTfc5+BHQbZ06NnP+SqKiQ/uPb0jc/LX3mQ0EZermvVUlf+p6avvAF6U1vUrHdxokboJKNGiXV1ARPe+3+WwjxXnihdMMNqjvrrAI/c2p+dF0+QrqsTpre9r2yH69/rw88p8NXDG9d7xLzY29Rufl/c3SzflS+39jOner3o9uk3z5sktIN0hmvN0lpra9hnHGaNHmKjsycqfgFF/R4vFa2YyBeh3idsLqcOY0ye4PM3Wuk7/xKmvBv0l0P+QXodf73l9LYj0s/eSw4U9L81a+q+aqrgrvx9d3vyvxvczdBJdiE1Z5RAdC5zUtNYlpp/j+VSfPMD8CoefZZFX/iY+pXWmpmTDL60YlS3Pz/3rHKPQbP7zQ/dOzdXHvU7+KLdcyZb5BuvDF4OYD0kJzmy/vfLz35F2nGJ8yByxx0T58ufX65dO9mcwwzCQyiqe5F6Z6HpU/fKp1SLi03yem8680fz99LFyR1FWavK7366qOT1IYGadYsXwlAh8YvMAmemezjMjtiVITYBLOkREVn9HNJ6I3m//vV/+IXJjnD/N+35Suvc/VumCnd/j3z2tNJUoE00axv5Ps0d+D++6Wf/VR66DfSn/8mnfQ6xU95nWKDks66RZzdvrFU11s+HXJ97Znm4NyDQuM9itlvXztodiCTmL70ijRurDTlYumDH5QmTfJ1nNBtnLgO7ctftjui2c4P6fC73hUs6hP7bwq9Ol6a9YNH8y6+WX+V+SFtkqpApfkvsaC17s39pZahid2yoE/S7fOlhSUtrz9iXh9cdT3NrOtueyaxvRTN+kGTvl+8eKNZnx/j3+ux7/dC80P02e0m4fyiNHmcL8yAvUZ9/ePSTbeb5LXUrMc+uhslE7Iab5JcfWfE6xCvE1a3q836jBBl9Pjdww0Nij3zjF7Zvl0nJjcJh+jxeL1XXnlFJ5xwgp9rFXvySf/MaTZJYb9Fi9R0zz2+JFxPxNuejdee9YyZ/zjxMWPaNtO301kM9tq02G9/q6I77tChX/86KEs3XkYoyV+8tvm1qaJCz595ZoGPEFWvftNPU2ztTWo+9GU1JebHbtDBL71TxXddqX4/K1fT6itlX1n8lf4qeuKHZv4MFX1FOnL9Gf71H9LBPy5X0VubWl5/+Pr2YyD7dX9gpw5ecar6rblSxT9JrNsv+5BLXBPy/f3a/7/FH/+Y+VG7z/zAvNWXdoNNUm97QLr912qeNVtNC1tHEozm/hCOeB3idcLq2qS0SyNEkZzmf2OF6avxxnfsUP+zztLhAt4f7B+5ptGjg+e9IV6rN32/VnfiJTlN1D06KQwSUNnk9HQdM/N0xa49pCPnBYsMO8ToJMV0dDL7/Cfe4OJ95Ks65nzzXsHyZMnJqdTfrFvJ67avu7WkJRG28vn9usT0apOY7s9OYprMdkN3021qNslpIkGN5v4Qjngd4nXC6nY5OaVZP/+nucP01XiPbN/ubiBgfwgeiTeC8dKsHzyadzn6bn3b1K6NOvylI8FY97Gae5Luot9k/orcknRnfevr681XGsS7q6rtsKQtkpv1n9UxJsk9mr9swMvb92svy5ltrxVvyH5immDPol74eWnyRdLKH0Z0fwhHvA7xOmF1u9qsn15KDgAocGdIU39ikk0/25HtJhlN2JX0PJRZ9zTzsMn8gLU/Ylum9gltHuQjMbXsjVMPfcu831NSSdvrT4FCR3IKAEjDcDV/6EPSsqQunpZMNEnl1KOHGV20Tu7q7npTv0Ja3Nmd9yZRu6y83bpj0uV57k4qX4lpgk1Q7U1WH71Y/c4sDS4lAEByCgBIU/MVd0tjZ0q21ws7PRFyJ/5iacCIEaaOmWTqtLvrPqXpa9uu2/Z3mvIu/9wotoNl5DMxTQi6nrpIsY9epOKL3+0SZKDAkZwCADyTKN0dbzs61EIzn5xc2vlEs3tY8jhmjv5RV9dxHf9eyXfjt1l3Ppv0TUJ44rx/N0/ynJgmBAnqxSZBvdh3W0WCisJGcgoAyIy9ySm21M9kme0zdckmP5MHvin/mH6NPZOYJvgEVR+9hAQVBY/kFACQmVEzcndm0zbvp3MZQDb4xLTHzpi255v4SVBR6EhOAQBZ4prq21wWEFVRS0wTSFABklMAQIGJamKaQIKKAscIUUa+R0wI01fjZYQoh3idKMZrR4hqnjVLu9/0Jr3rXe/Spk2bdNJJJwXLohLviy++GIy00hniNcec008PrZvTkZ+yzQ93Gr/9ATU98JvgcyVwfCDeZFGNl+FLU2Dnika8JKcO8TpRjNcmp7Hf/jZ4jt7PDgt6eIG7JjZ5f+hViWlCSILK8YF4k0U1XoYvTYHhx6IRL8OXOsTrRDneurq6Ah++NFyvjzfqTfkdCRLUB6Xb7zexmx9RZ5zB/mAQb6uoxsvwpQAApNKbE1OLa1BRYEhOAQB9V29PTBPaJajBiFZAH0VyCgDok4Kx6vtCYpqQlKAO+3A5Z1DRZ5GcAgD6nMTNT30mMU3wCWrsapr40XeRnAIA+haTsPW6u/IzYRLU2GyTnHINKvooklMAQN/hrzHts4lpQvubpIA+hOQUANA3+MS0zzXlh0kkqJPHkqCiTyE5BQD0foWWmCbYBPUG/7lnz3ZlQC9HcgoA6P0KMTFNsAnqyi9K638t3XijLwR6r1htbW3aw5fu379fgwcP9nPh7CgrZWVlwWNncjmcV7rx5ns4rzB9NV571+yp48ernv0heCTe6Ma7e/dujRs3Tlu3bm0ZWi/K8aZSiPHabpWOOeZAYSamyZ6tV3zyPL207D91aOLEoKgQ94dUiNfJd7wNDQ0qLS3V9u3b28TXWbwMX2rkezivMH01XoYvdYjXiXK8DF8aLrLxXnih+ceeMb3FzRe6G3/khjndsTOYLbj9IQTxOvmOl+FLAQCF5bbbpGefJjFNZm+Q0hH33QC9FMkpAKB3ummRu9YSrRLXn9rvBuilSE4BAL2PvfHnjFOlyeN8AVrY78R+N+vX+wKgdyE5BQDkh02WbHdH2RjR6KabpBs+4mdwlAveYr6jhX4G6F1ITgEA+XHGGdKDD0rnnCNNm9b1JDVxPSVnTcNd/S/Z+REA9ACSUwBAftjkdMkS6eWXW5LU4unTg+7mMmKTrqsv9TNIyV57aqbYb3/rC4Deg+QUAJA/kydLtgsZm6Caqcgkqf3e8Y7MzqTu3CZdMNbPIFxz5ok/EAEkpwCA/LFnT7/6VWngQDf/yittzqSmlaQ++5x/gg6dMYLkFL1SrLGxMe0Rovbs2dMyakpHamtrVVJSokOHDvmScLkcMSHdePM9YkKYvhpvfMcO9T/rLMUvuMCXhEsM3BCLxYLHjmRS1zp0+LD6p9GZcK5iIF4nyvG+ZI5ZwzZt0ksTJuiE/v2DsijHm0qviLexUbHHHjOVUvyNOOEE+yZqfve71XzzzYqffrpf0HqM6v+edyt29fnuukqEu/E2NTWN0pGKil7z9yJXMRCvk+94bef7w4YN0969e9t0wt9ZvCSnRr43Vpi+Gq9NTos2bOjxP5b2P8mQIUP8XLio/HEn3vzH+8LLL2v4/Pmq/+Y3dZJNkowox5tKr4j3hRdU/KUv+Zl2+vVT/KSTFP/EJ9S0sO3d5oljFMlpmmbfbJLTk3Xk+9/vNX8vchUD8Tr5jtceB7qUnDJ8af6H8wpDvMSbjHjzHy/Dl4bLary2O6n2IxiZpFQmKdU117g+TFNoiWHpTdLOR6WVIQkunNnfUNM/X6bmq66K9v6QJFcxEK+T73htcsrwpQCAaLPXkyYnpvZMqf0jtWCB/XUQmpi2Mfkiaf1WP4NQ6x9P63IqIGpITgEA+WM7z7fsmVKTlDZ/+cs68txz6SWlCfamqmefN1O9L0BKz9b6J0DvQnIKAMiPxFnTpDOl7a8rTYtNTidPMoluu0sD0Oq2X5nv6J/b3FAG9BYkpwCA/LCJ6Q03pN9835EbbpLWP+FncJSbfih9dI6fAXoXklMAQH7YhLS7SWmC7cz/jDcEd6SjnfWPu8serr7aFwC9C8kpAKB3Cs6ePsm1p+3Zyx1ITNGLkZwCAHone/b0ox+VLpznCxCcNbXTypW+AOh9SE4BAL3X1R+XzhgjOxoSjNlflx56yM8AvRMjRBn5HjEhDPESbzLizX+8thN+O4BITU1NSyf8UY43lUKM144f3+/iC6WV86XJ43xpAbrwWsXjQ3Tkgd/4gsLcH1IhXiff8XZ1hKj0PjUAABFlu0tqqrhRmn2La9IuRL45v+kH/+sLgN6L4UuNfA/nFYZ4iTcZ8eY/XoYvDdcr4r2xQrr9dukhk6Se0fl79xk2Mb3wWtecb6/DTVLQ+0MS4nXyHS/DlwIACtuNla03SBXKHfz2c4YkpkBvRXIKAOg7ggR1dmEkqEFiaj6nHdiAxBR9CMkpAKBvufrjap7Vx8+g2s9lr7GdfEn2BjYAIoLkFADQt5xxhpqv+ljfTVDN52m++hvmyXH0Z4o+ieQUANDn2Dv4bYLa55r4/RnTI4cH0J8p+iySUwBAn2QT1KCT/r6SoPrE1J4x3bt2rSsD+iCSUwBA33XGGX0jQU1KTDljir6O5BQA0Lf19gSVxBQFhuFLjXwP5xWGeIk3GfHmP16GLw3XF+K1w5wW/fB/VXSH7ah/We/oqN8npvH4YB154AFfyP5gEW+rqMbL8KUAAHQgcZNUr7mLPyQxBfo6hi818j2cVxjiJd5kxJv/eBm+NFyfivfZZ6XbfiDdvjK6Z1A7acpnfyDeZFGNl+FLAQBIR9SvQe0kMQX6OpJTAEDhiWqCSmIKkJwCAApUUoIan/z5nk9QSUyBAMkpAKBw+QT1wOVX9uwZVBJToAXJKQCgsJkEdf+06T3XxO8TU3tXPokpQHIKAICaRo+Wbqz0Cep8af3jfkmOJSWmdBcFOCSnAAAkBAnqHNfEfuNtvjBHbAJccqV0xltITIEkJKcAACS78UbphiXS7Q/mLkG1iemF10orV7oJQAuSUwAA2rv6aumhh02C+pBUMj27zfw24bWJqb2+1L5PDhXddbmOmX6nn0uyeqp0eZWfybLNS6WYmZLVVZuymLRkky8AwsVqa2vTHlt///79Gjx4sJ8LZ0dZKSsrCx47k8uxZtONN99jzYYhXuJNRrz5j3f37t0aN26ctm7d2jLuc5TjTYV4nWzFW1xTo8FrVmvg3Xer6OqLTWLZjWTytl9Js2/W4XdN0Mvf+ra7ztXL1fd7bPUcHf/L92nf96dqvy+zBt8zR0N+ean2fa+8pTxr3++j39bwf5UO1H1OrwQF/9AJH3ubBrz/5zryy/er6Jo6vXBusOAoudrGufp+idcJq9vQ0KDS0lJt3769TXydxcvwpUa+h/MKQ7zEm4x48x8vw5eGK/h47ZCnsz9qHv8uTX6L9NF/MY/j/MIO2BuebFJ6+6/NjInlhptSni3N1ffb9KPLVPyTcunHs3yJZ8+c3mOmu2f4gix+v/bM6QTzGF/g5o028e4y38mo1LHnahvn6vslXiesLsOXAgCQK7Y/1Id+qyMPPKTm0ee4ZvkSk9jNvtkln7bZ3yai9tHOB03389wNT7evM8nsJ6UdO3PejN9lu6p0TP/+wRQ0v682n0WbzHOTwO4yTxNN9TapNcttvX6PBK/snFn3KSNGuPXa9anzJAqFjeQUAIA0xU8/XU0LbzKJ5g7pBntdpUm0flsr3fRjk4xeZ5LVZSYZ/Z0p+7uaz79UR7Ztc0mpvcmqp6y9yieGSdOMar/QMkno6JmKP3xIhw8dkmpWmeUmmdw8Qaoq83WsCmn7fPMlxHX44ZsUO/9yl7h2yK27+Rd1weu0yaxvdLvrUYF2SE4BAMhUMLLU1f5u+x+6m6d2POcSUfv8od+aJHZhkMz2uKkmPpsYJk9V5X6hsXmdNG2Vms/z86NmuOUTTBKrOWbeFUumbLZtrzfOm6341J9ID9szrB3w6z6QuMZ0vFnfNJPkbvbzQAokpwAAdMdjj0mlpX6mF9qxRRpbIndLS5LFG6XpyU3wZUmJ6nDFx/qnHbHrXjNTQ1qa9c3jGlveSVKLgkZyCgBAdxx7rPSPf/iZXqjEJJ1P7EgjITCJZkszfr1iT/inHbHrnrZK+2zvPclnbtskvUBbJKcAAHSHTU5fe02y12v2RuOnBGc3ixI3OO2qctekXuyb8FuYskQz/iMrFVv7Ien8TpJMv+5Bj/p5u257BpVmfXSA5BQAgO6w/TUeOeIS1F7JJKE1qxQ739+tP3qmtCluEku/uEWltN01zx9z/g2KP3x3UjN/GLfuon/1zfp23VV1KdYNtCI5BQCgO+yZU9v5eAST0+Yr7tbh1Vf6uSTT17bp49TeBGXv1A/u1rfN7mHJ40LXLG/rHUncQNXe+AWmTmsfp3bd/0hu1qdJH52INTY2pj1C1J49e1pGTelIbW2tSkpKdCiNJo5cjpiQbrz5HjEhDPESbzLizX+8thN+O4BITU1NSyf8UY43FeJ18h3vMUOH6sjvf6/4mDG+JNrxpmLr9vvKQBWXPqfDV7RLIB/5qo4539Q59GU1mdnM4/2VRrz+f6Udd+vI631hCrn6zjKPl/9v2ahrO98fNmyY9u7d26YT/s7iTe9TAwCAcInrTnu5I9c3Hp2YZsW5OnKo48QUSGD4UiPfw3mFIV7iTUa8+Y+X4UvDEa8Tut6SEqmqSprQehNRpONNgXhbEW926jJ8KQAAPaWPnDkFooDkFACA7rJ37JOcAllBcgoAQHdx5hTIGpJTAAC6i+QUyBqSUwAAuovkFMgaklMAALrLJqf79/sZAN1BcgoAQHdx5hTIGpJTAAC6i7v1gaxh+FIj38N5hSFe4k1GvPmPl+FLwxGvE7be4htukF5+WU3f/rYviXa8qRBvK+LNTl2GLwUAoIfEUzTrx3bu9M8AZILhS418D+cVhniJNxnx5j9ehi8NR7xOy3qXLg0edeON7tGeMd20SbrzTunZZ6XbblPzjh1q+sEP+H4N4i3MeBm+FACAfLn6aummmyTbNHnttdKBA+5ufZus2nH2zbLmWbN8ZQCZIDkFACBTZ5zhEtSXX5ZWrJC+8hXpF7+QvvY1t3z8eMUvuMA9B5ARklMAALrC3gR15IjU0GDbL11ZY6PUr590zTVuHkDGSE4BAOgKe/Z05UqXjCazCas9qwqgS0hOAQDoqsmTpbe8xc8YAwe6hBVAl5GcAgDQVfbs6ec+13r21Dbrc9YU6BaSUwAAusMmo/bsqT1rSmIKdBvJKQAA3fWtb7mzpvYmKQDdwvClRr6H8wpDvMSbjHjzHy/Dl4bLdryx555T7JFHpCefVGyXef7Ky+ZNmvzS1BLjusRi7rEjmdS1Dh06rP79O+9svMP11tVLI1o7Fo98vO0EdYuKpRNfJ40+TfGzz1b8vPMUP+00VyFJoe+/CcTrhNXt6vClJKdGvjdWGOIl3mTEm/94SU7DZSVe8weqaOVKFf34LsUefVwaP1Z6a4l0hvmuTzR/uIrTWzdyqMls55cbpGd3S1t3SJufUPzccWr+8BVqnj1bGjo0qFaQ+28KxOuE1e1ycsrwpfkfzisM8RJvMuLNf7wMXxquW/Ha5m47mtI3b5Eueqc0c4r0gYnSkGPdckTXvtekn22UVq2THvy99IX5waULh4uLg8UFsf92gHidsLoMXwoAiJ7qaumsUump/5M2fFu67ysmOb2IxLS3sNvJbi+73ez2s9vRbM+ie+7xFYDsIzkFAOSGvTloxnTzOEP62RJp/Nl+AXolu/3sdjTbs/iqWSq2Z8OBHCA5BQBk3fHXf1n68Y+kR74jfex9vhR9gt2eZrsW3bNa+uxcXwhkD8kpABgLn2jUdTuOU9m7L1VxcbGufuQ13fhko1+KjFx3nQY9+n/S/V+X3jbGFyIjux7U1Nhkxey05ClfGCF2u9rt+7vfBNsbaM8eU+c+GQuOqfZGqUyOqSSnAGAsGTtQdea42f+jlbr26QFB2Y1vGRg8IgPf+550x0rFfnyj9PqTfCEyNuoird00R+VV1YovjOjlEHb7rlkUbO9guwNJ7DH1eX9M/dRWd4N8usdUklMA8NaMO6xXTnqDtrwiLX0riWnGnn7aNfN+/wtS6et9Ibps/Cytne66boosu53t9rbb3W5/IMnPxxcHx9Q/vtSc0TGV5BQAvH//6zE64YVnNGKAtGBro/Yc7Lw7PCSpuF761Aek9080M3tVdblvlk4xTV29V9p8h3l+hza5V4d4Skvtay5/UPW+JLf8+yVizDr3vXS67kSzft4+d4hgGy1S1S4/H2j3Gez2ttvdbn8gyTWPNwXH1JEDYxkdU0lOAcC49emDweNJdy8MzqDWHohr+TZXhjRs2CDdd590Q2Js+aGacfd6xeN2qtaqaXJN1MH8+rTPCG5aMlcVi5dr49hKzc1Jstje2VpQU6Fy86x6e50r6gGbVlZKVcu1Svn63KmYJHTZNq2qWawZo3xRGLvd7fa3+wFgJB9Tf3ZeUUbHVJJTADCuPXOAvlHSoF/84hdBh9IPTB7MNaeZ+O5y6d9NSjfseF+QHRMWmmR24dnB4/LzfWGu2es9bRLdY9d67lXJbJvAnx0k+Hn73EexPzBSJabuh0ebHxh2u9vtb/cDwLDH1OVviQfHVDuCVCbH1FhtbW3aw5fu379fgwcP9nPh7CgrZWVlwWNncjWUlpVuvLmKgXgd4nWI14lyvLt379a4ceO0devWlqH1ohxvKj0Rb9FLL+mUN79ZevpHUmmqU2y2Gbhcay+rbpvQ2CbjCdKqqm2aOcOdcbNnV1vr2Cb2uarwc5Wb1mvBePd805LJmmiWrHqiUjPX2JI52hgv07qW+nZ+lszqjxK8dpGfmVahursvUstYNUFMK/xMUjy2mX30BpUtlioW+bODi5enTmB93alVpeZzuXW1fq7Ed1GhshmVqWPtJIb2612uWzUi5feXJMV3bb/PKQ+0fhfJ32/7GIJlo+z712l+/FLtSLU9t+2SzvyI/vHnP6v5da/zhQ7Hs8KMt6GhQaWlpdq+fXub+DqN1w5fmi6TbPpnHdu5c6e9qMDPdcy+f7oxZFLXSjfeXMWQSV2LeIk3GfHmP97nn38+OHbV19f7kmjHm0quYuiw7u23x+MT32aerA+ZquOrpiluEqe25ZvmBN93S3kwPym+qibFa2oq4uUty9bHNy7WUXVNkhffGKx7ebwyeb3Jk32PaRXxOj9v19Naz76u9T1cPH6dwfub91i83C3z8yZp869NmhJ1E+/Tpm77WP18Yr2ZxNDu+6urmpS03nZTyrqt8QffZ5t428fg5jcutusP2Z52svuB3R/a4XhWmPG++uqrwX62b98+X+J0Fm96KTkAAGE2rJemvM3PZGqO5ifOvo0aEVzrGdi1RWvXJC+7SPMXb9Dah5Ouv1x8hW9yHqqSsXa+zJ99HKGSacGT1NZUasVm99ReLtB69u9sLYi3NmPX79jmnrSYpFWz/ZlSE2uZexaqcp4/IxvELlU80NpfaXnVpT5WH3uLzGIwSaSmnu/iH15SGjyGa/0+Xd05muLPlJaMmeSeGPUPb1B1y3drjJ+ljea7nzl6stZdnPpsdAu7H9j9AegGklMAQPc8tkV6+1l+Jkt21alaKzTR3zlvJ9v83O2blEyiFd80RxUTWte71CeqibvQE+VzuzV8/CSVJF3hkJz8dSybMXTNju0bVD5mhJ9rVV5V3drsH8buB3Z/ALqB5BQA0D3P/D3kWtNuCM4K2msxE3f8+ykbNynZBNWvr65qkklUfXdWm+/VzDWt77l2XmdnIjuyQTuSul+yCV9ashpD19hEuss/Aux+YPcHoBtITgEAXXfwoPTKPumUE31Blowq09RpK3RLSzdKrv/R7vY9Wr96UZu+Q4Pm7WkjVOLnpW0+qbTdKLXeENQVLc34ux7ULYukyovTTayzF0NXDD9/ksoX3dXat+nmOzRxUevlAx2y+4HdH+x+AXQRySkAoOsOHXKPA45xj1ljuytarrIZ5b6J2/V3mvJO9AwMn7446DN1hG82j03YplXL/LWh4y/Vqmnu2spY7FZpnu3vNJEoZmqSKnWXe4/Rts/SNJrErazG0EXB0KmlPgb/HaXT16mV2A8S+wXQBTF7d9Uxx6R3UKmvr9fw4S0dboR67rnndPrppysetzdpdcz2J2ilE0Mmda10481VDMTrEK9DvE6U462rq9PIkSODZaeeempQFuV4U8l7vPv2SccfL716nzTkWF9Y4BJdPqWb0PUl+14z+8P7zP7wqtkfhvhCjmdWIca7zxwfjjfHB/t43HHH+dLO4+XMKQAAACKD5BQAAACREWtsbEx7hKg9e/a0jJrSkdraWpWUlNgO/n1JuFyOmJBuvPkeMSEM8RJvMuLNf7y2Wd9eklRTU9PSrB/leFPJe7z79umYYcNo1ofjm/UPv/him2Z9jmeFGa9tzh9mjg979+5t06zfWbzpfWoAAAAgD7ghysj3BcJhiJd4kxFv/uPlhqhwoXW5IQrJuCEqVCHGyw1RAIBeKeh7NOY7wu9D3Ofy3TElTa0jUmWTG1mqu/3AAlFAcgoA6FG279G6qm1JHe5nynXQn5ukr5umVajOj/YUTH7o1HRj3bTEJLRLWsfkBwoBySkAoMfZBLW7Hez3CuNnuSFTl7WOUgWgLZJTAEDXDR7sHhsOuMd2jjrzZzuojy1qMzRmcpN322Zpd0a04+Zw25w9VxXmWeozkq65e+kS/z6JWII4EutOisfHt3RJUpN8uzOXwWfyy9x6M7skIRgydU2ddvj5trG0vp+9LGDiIvNk0dyQuFvrttrS+p0lDdMa6OC7Tv5M7V/X5vKE9utsL7EfJPYLoAtITgEAXWe7jhl+ivT8C76grQkXzzHJ1ZaW5K3+4Q2qnjZJU4KRk0zyGQyN2drkXT3jXl/XJZ1bqqqTmsOTksgWbpjTSvOsctP60CFCK54Y4ZrXF9rx7c37jq5Umalv111XJc0cnZxgbjDJ7hXufWsqVG6Sw5akNxhnfo422mXxapU80YWx70eNSBqS1HzOea2xuPdz49oHQ60uNlUWL/dxh9dNqJ6xQSXB91mtVeZbGdGSvHbwXdvP9ETr5Qd2eNe5icTVLBsxo9R/XresdZ0p2P3A7g9pdoEEpMLeAwDonrPOlP6808+0M77MpEgrtM4ndzu2b1DlPD+Wvc7WgnjrEJ/1O7a5J9auLVq7ZpKmnu+b+v2Y82sf7tp1qeWXlfn3NDZvMcnnHE3xiezw6Ve0idGOi79qtk0GDZNIlrlngU0PmGR0cZkmBHMmMZ5nku9uscl1UlK9q07V/unR0qi7+Ar/ffrYWn4YdPBdW2vMN+A//4SF61susbCft7zqUv95zbLZNiFu/bFxFLsf2P0B6AaSUwBA97zDZEub/+Jn2jtbc+w1lg/Ys21Pad2i1qQw0eSeaDKee48vtoLEq1QlORibPkjMpo1QiZ9P317teMIkumNG+PkuavfZ2jSpL9umclecUmd128QWnKFN6OC7Hj+r5UatxHJ3pth93uoZ5S3lsdGVJvbEWd8U7H5g9wegG0hOAQDd8+53S/c/6meONvz8Se5smz1j2XLW0dh8r2auSTSRr9faeaV+gdGm6Tu7jrrmM21DVTLWJGvb6/x81wRnXxPJ8a4HdcuiSa3N7csmBXVSyqSulXxmtaPv2rIJql8W3LA1wV7m4D5veeLSipap9QzsUex+YPcHoBuK7JBTtvPUdKZ06yaGsUq1rP1k62ay3nTr2ikX681VXTv1dAyZ1LVTT8eQSV079XQMmdS1U0/HkEldO/V0DJnUtVNY3fbHrlzFkEldO/V0DB3WtcnIq69JDz0WfH9HGVWmqdNWaKK95jHRXN4i6drLZUnXbwavSWrGD5KrpGb+7mh3qUH96rvaNPN3pO01tO1iTkdwzaqSLm2wNrQk4ZtW2jOTHem4bptrdm1syT8GQr7r4IanpBudguTdJ8/287au09cNuwHMbn+zH9j9of0+kvd9st2USV079XQMmdS1U0/H0FFdq31ZZ+vlzCkAoNuar7pa+t59fq69oZpy2SST8CRuhPL8daQzR9sm41uleRVJZ0vdjU5liSblCStUuSnsjN3ZmrLY3a2fXif0Z2tBTYW2+GbsETOkVTWzkpK4DoyfpY2LTaIdNHObmC/r5JrTNZUakWgSDz6Huymp5brRURdpvo/dLl93sb25qzUBdcnwXJc8dlLXKq8aoXXBe5Vrpkm564IbqYwOvuvgxit7o1NyjMt88hx0fbXNf95Oviuz/YP9AOgmhi81chUD8TrE6xCvE+V4Gb40XKd1a2qk006TNn3HJDRv9oUFwHbPtGyE6u5OPhNagDb/2WTSn7EJgDR6tC9sxfGsMONl+FIAQM+xCUlFhbTwNl/QNwXN2i1dKfnm8bEjCjsxtex2t9s/RWIKZIrkFACQHUuWSC8ckL7yI1/Q9wTdTtlm9lRN54XKbm+73e32B7KA5BQAkD3f/Z604AfSXet8QV9j+wtNunO90Jvz7Xa229tudyBLSE4BANkzfry0erV05WKpeoMvRJ9kt6/dznZ72+0OZAnJKQAgu668Uq/8539KUxdJy3/iC9Gn2O1qt+8PfxhsbyCbSE4BAFl34MMfln79a+nmu6WP3izVd23YUUSM3Y52e5rteuTee6VZs/wCIHtITgEAuXHJJdJjf5JiJ0tvmCkt+aH00j6/EL2K3W52+9ntaLbn4T88qvjFF/uFQHaRnAIAcuekk6TbTFLzs59Lm2vN/AelWV+V7nqIs6lRZ7eP3U52e9ntZref3Y52ew4b5isB2RdrbGyMFxWll6Pu2bNHJ59sfgF3ora2ViUlJTp06JAvCWeHsLLSiSGTula68eYqBuJ1iNchXifK8dpO+O0AIjU1NS2d8Ec53lSiHm/siSdUtHatYr++T7FHH5dGniKdPlw68TipOL1154IdNCYWi/m5LjjSJB00f/MG9Jf6FfvC3Ol2vGGazHZ+uUHaWS89/w/Fzx2n+Hvep+apUxUfO9ZXKtz9tz3idcLq2s73h5kfMnv37m3TCX9n8ZKcGvneWGGIl3iTEW/+4yU5DZeTeBtMEvTUU9KuXSp69VWTGJkErwOJUQfTScoyqWvtM7EMSfrjGSZ0vY2NKp43T03LlkkDBwZFkY43haBucbFiJ56o+OjRir/pTTIZhV/aFvuvQ7xOWN0uJ6cMX5r/4bzCEC/xJiPe/MfL8KXhiNcJXa/5I6zjj5dskj1kSFAU6XhTIN5WxJudugxfCgAAgF6P5BQAAACRQXIKAACAyCA5BQAAQGSQnAIAACAySE4BAAAQGSSnAAAAiAySUwAAAEQGySkAAAAiI1ZbW5v28KX79+/X4MGD/Vw4O8pKWVlZ8NiZXA7nlW68+R7OKwzxEm8y4s1/vLt379a4ceO0devWlqH1ohxvKsTr5DveWEODTi0t1e5t2xT3I+FEOd5UiLcV8WanboP5f1Fq/l9s3769TXydxcvwpUa+h/MKQ7zEm4x48x8vw5eGI14ndL0MX9oh4i3MeBm+FAAAAL0eySkAAAAig+QUAAAAkUFyCgAAgMggOQUAAEBkkJwCAAAgMkhOAQAAEBkkpwAAAIiMWGNjY9ojRO3Zs6dl1JSO1NbWqqSkRIcOHfIl4XI5YkK68eZ7xIQwxEu8yYg3//HaTvjtACI1NTUtnfBHOd5UiNfJe7z79umYYcN0+MUXWzrhj3S8KRBvK+LNTl3b+f4w8/9i7969bTrh7yze9D41AABoEdu50z8DkG0MX2rkezivMMRLvMmIN//xMnxpOOJ1WtZbWytdeKG0cqU0efLRw5c++6ziV1+tpooK9bvoouA1HeH7dYjX6SvxMnwpAAD5csYZbrIJ6ujR0sMPu/LnnpMmTJBKShQ/6STFL7jAlQNIG8kpAABdYc+aWi+/LF1+uXt+3nnS5s3B0+ZPfSp4BJAZklMAALrCnjkdP15qaJD273dliccPf5izpkAXkZwCANBVq1dLSdfStZg71z8BkCmSUwAAusqePX3LW/yM9+EPu5ukAHQJySkAAN3R/uwpZ02BbiE5BQCgO5LPnnLWFOg2klMAALrLnj21OGsKdBvDlxr5Hs4rDPESbzLizX+8DF8aLtvxxp57TrFHHpGefFKxXeb5Ky+bN2nyS1NLjOsSi7nHjmRS1zp06LD69++8s/EO11tTK41+vZ/pBfG2E9QtKpZOfJ35HKcpfvbZip93nuKnneYqJCn0/TeBeJ2wul0dvpTk1Mj3xgpDvMSbjHjzHy/JabisxGv+QBWtXKmiH9+l2KOPS+PHSm8tkc4w3/WJ5g9XcXrrRg41me38coP07G5p6w5p8xOKnztOzR++Qs2zZ0tDhwbVCnL/TYF4nbC6XU5OGb40/8N5hSFe4k1GvPmPl+FLw3Ur3sZG6aabpG/eIl30TmnmFOkDE6Uhx7rliK59r0k/2yitWic9+HvpC/OlG27Q4eLiYHFB7L8dIF4nrC7DlwIAoqe6WjqrVHrq/6QN35bu+4pJTi8iMe0t7Hay28tuN7v97HY027Ponnt8BSD7SE4BALlxww3SjOnmcYb0syXS+LP9AvRKdvvZ7Wi2Z/FVs1Rsz4YDOUByinAHD0rPPCM99pibduyQmjq+YQEArOOv/7L04x9Jj3xH+tj7fCn6BLs9zXYtume19Fl6J0D2kZyijaKf/lT65CelN79ZGjhQGjtWep85EL33vdKb3iT16ye97W3Sv/2bBjz0kH8VACS57joNevT/pPu/bo4XY3xhD9h8h2KxRara5ee77CktjU3W1NV7/TyC7Wq37+9+E2xvIJtITuHOkFZWqt/pp6to4UJ3N+ayZfbuEOm119xjfb27qaGmRlqyJEhSj/9//08qLZW+9S2/IgAF73vfk+5YqdiPb5Ref5Iv7CHjZ6muSpq58ilf0DX1q+9SxeLlWjvd3akOz27fNYuC7R1sdyBLSE4L3Q9/KL3hDebX7+/UZA4uR7ZulW6+WfqXf5FS3Uk3apT0gQ8ECeme3//e1bU3PNizqj/5ia8EoCA9/bRr5v3+F8wP19b+PnvS8OmLFV/YvWtds7GOPstuZ7u97Xa32x/IApLTQvapT0n27Oc3viH96leKv+c9fkEGpk6VHn5YuvZaacYM6Utf8gsAFJyK681xxfx4ff9ENx80q08Ome7QJlfrKPWrF3VaJy27HtRUu54lHZw5DWLs+H02LbGxZOPygHS5ywjsd5DJpQRBnB191i7qdL12e9vtbrc/kAUkp4XI3tR06aXS3/8uPfqoNH26X+DZwRPWrlXcJJwNkyZp35vepH1vfrMaLrxQ+uIXpZ//3FdMcs01bl3r1kmzZvlCAAVjwwbpvvukG672Bcb4WYrH17tp0xxTMEcbE/PxWZrgah3FnqncuNg+26YdXU4I96pqXqVUtVyrnpirpZt9caZM8jpxkYl7U6lmzntQ9b7YJb65SljP1oKaCpWbZ9Xb61xRKjmNIUN2u9vtb/cDoJsYIcrI94gJYfIVb78PfUjxgQPVdOedvsSJP/+8im65Jbh2aGf//vrF/v16Mh7XHrPMjnxnuyQ/p7hY7xs0SDbKw3PmaKDtKiapY101NKhfebnio0eracWKoKjQvt8wxOtEOV5GiArXWd1+s2Yo9k8DpK98wpe0Y89Qmmx0YwdJaS7V79qr4aNSXDOaSVxmHfVmHcEFTzYxHL1BU2sWa8aoYGn+tYvBnuGcqOVZvwQh7fVe/33F/35QR+6o8gWtOJ4VZrxdHSEqvU+NPqP4c5+TDhw4KjEtMolk7Kyz9PMf/ED/bH5UjDFJ5rUmMf2BWfZTM9mrSf/HTJ9qatJpZtn7zPTI97+vI//0Typas8Ys8czOd8TMx/70JxXbG6cA9H3mD0/srh9Ls9/rC9JkE8PL79DSy5ObzfeqKphPTCFN7kc1x7vXtTSDJ5r0g2mR1imdm5n8e1/eeobUNen7aWWdS0xts/voSlVrg2aODjlzmfz+Sx5sE1v7ZvLgMoak93Sfzb/WTKmb9sNiqEv6/trFFrZefwZ26ZLE5RRmOqoZv4P1JpjtH+wHZn8AusUOX5quuro6/6xjO3futOOW+rmO2fdPN4ZM6lrpxpurGDKpa+U83rvuiseHDo3Hn33WzSfMnx9/adCg+AfNNrPbLZNplpkO9esXj1dW+pV5f/yjHbw2Hl+3ruvxdiKTuhb7A/EmSxXv888/H+zX9fX1viTa8aaSqxg6rHv77fH4xLeZJ+vDp01zzHc7J77xqDLFKze1ltVVTYpr8XI/Xx1fNU3x8qrqluWt0/J4ZfJrayri5ZoUX1WTYlmq905MLcuOfq8glmkV8bpgvt3yNu/XfnLv31LXf87E/MbF5vjZ8hnbv499bdJ6O4q9XQzBetvPp7PeYD1JMfn5xPfX8XrbTXY/sPtDOxzPCjPeV199Ndj39+3b50uczuLlzGkhuf56yTbbn366LzD+3//Tzv/+b73jwIHgDGmm7jDTu44c0UtLl0pf+5ortM49193JX1HhCwD0WRvWS1Pe5mcyNUdTxvunRts74+u0I6lhpq2zNWWxOcQ84M/w7apT9eIrXBP75i2qmFahOYn1jr9Uq6at0LrQ60636ZbLy7X2suqk7qL2at09G1Q57yJ/tnSoZsybo+p7trSe4Qxj3998rvmJdQXv75527mwtiLdeKlC/Y5t7kq7Ed2CUjJnkngQ6W+8krZrtv/dRI1TmnrUKXW87dj+w+wPQDSSnheLWW6WRI6XZs32Bcfvtavj2t3VJQ4O2+6Ku+IOZLjXJbXCn/r33ukLL9gTwwgsquusuXwCgT3psi/T2s/xMN7Vper5LWzpI6ibMrlD5oi1B0/6mB1ao8mKXXAWJ15pKjWhZT7lmmiR3y46w5mZ7E88kVc+4N+kyAZcYV0xIrMNME1aY9ZpyXyM32l7WMDdrQ9jnar3t2P3A7g9AN5CcFor//u9gVKcWr76qg2Z+zsGDykbPdPaAbgexa/jMZ4L5Fp/9rIq+/30/A6BPeubvUqk/rdYtJoFatkLlVdX+jv5rNdUvSWlUmaYGZ0Sf0rpFrWdgh5eUStMqVNfSM4CbwjvRn6P5d9seAlZoYsu1liNUYhLjyk1t19FRLwNZsflek0i39mqwdp75LNmQq/W2Z/cDuz8A3UByWgBiv/2tvWXOHKyTTkHccosebm7W3X42G75jpmdfekn6r/9yBdbVVyv28MOK/e1vvqBjsZ07XbwAegc7wtwr5vhyyom+oPtauk8KEir3NLWhmnLZJFVMmKstVZe2Jo3jy1S5plIrEs34/uakzrqTmrBwuSoXJbqd8ute1u7mqOQbl8L4ywhuSdxw1O5zBM3i/oxv4vKBthJdaLlkPXtytd4kdj+w+4PdL4AuIjktAEW//rX0r//q55wDJoH8+v79fi57vmaS4H3f/rafM4YMUfOllyp2//2+IMSzzwaXHPQrLQ0SVAC9RKLLwAHHuMducdd1yiSIQfPzA2VBf6cd9fU5/PxJKtckTT0/+ayo6yd0S6JJfrTt77RaC5KubU3tbM2pssmu6wUg6G91bOvlAUF/p3f7a1CDs7b2TvlUSa/5HHcvV9mMcvf+y6TKpHMDw6dfIZM6a2Kw3luly2wfsF6Q2Lr1Bsvm2f5OQ/p77TCGdjJZb3ck9oM0upIEwsTs3VXHHJPeQaW+vl7DUw1p2c5zzz0X9BUYt/drd+Lw4cPBYzoxZFLXSjfeXMUQlXj7XXihYp/+tDRzpit86CG9YJLVk+24+VlmI3qtuFj9nnjCDWlqNH3ta4r98Y9tu5xKsEnpTTdJt90m3XCDDi9YEBT3pu/XIt6+EW9dXZ1GjhwZLEv0cxrleFPJe7y2Veb446VX7zM/Ro/1hWjLXu/Z/oarPmqf+bty/PuCS8fsyYkEjmeFGa/t5/R4c3ywj8n9nHYWL2dOC0Dsqaekt77VzxmbNmm97zA32+zu+eix5g+UeY+E+Nixiv35z37O82dKVVLieg+wP2RuvNEvBAAAhYrktK9raJBeflk67TRfIB184gk93tjo57Jviz0juy2pm5LRoxXb5duOSEoBAEAHaNY38n2aO0wu4j1SU6N+NjG1Z0pjdhBSaf9FF2n+b36j/w7mss+mmtd/7GM6xg9femTnTvWzyehHP+qa7888Uzordbczdgg0G2UszeHS0q1rHTx4UAMGDPBz4eJmvXbPTWfINlvXSieGTNZr5SLeTIejy8X3m+k2trL92axU8TaaH20PPPCALrnkkpZluYohG/Gmkvd4jxyRfvlLmvXh0KwfqhDj7Wqzfqy2tjbtsfX379+vwYMH+7lw9rqtsrKy4LEzuTyYpxtv3g/mIXIRr3bv1vBx41Rvz1wWFwdFA6ZP18L167U8mMu+SjP9+6xZ2v/1rwfz9qzpqePH65VvflPHfeMbih04oMPnnquDJgFor9n/oCnyiXRHMqlrpf3HPUcxEK8T5XhfNX9QlyxZokWLFpm/q+4Pa5TjTSXv8Zq4jreDbZCcwvLJ6e5t2xRPSkb4e1yY8TY0NKi0tFTbt29vE19n8XLm1Mj3L4kwOYnX7ADH2AOESVJ1yilB2ZFPfEJf+8EPlKuxm35k/oDOtKNRmT/w1pE//lH93md+Sf/jH65Z3yTGwU1Qlj2bmtSs3+u+X+Jt0Rfi5YaocKF1uSEKyThzGqoQ4+WGKKTWv7/io2ynyM/4AqnfuHF6V9JOkm3vMO+psxPDD5pfQH//u+JnnOFm7OPVVwc9Bti78+0oVcH1p1x3CqCvCEa5WqSqbHfTBBQIktNC8La3SY8+6meMSZP0rgMHgm6fsm20mc60Z1LMeyTEtmxRPLm3ACskSS1essRXAIAeFnTen2mSaTu436ZVNa3j2APIDMlpAWg+/3xp3To/Z4wdq8Yzz9RVfjabZplp/4UXSief7AqM2Pr1itsYUmmXpMZ++EMVf/zjfiEA9Da2A34SU6A7SE4LQNxe73nPPa5LKW/IdddpYZab9u3avjRwoAZ/4QuuwPrLXxR75BE12xg64pPUpgcfVPPChb4QQOQlbmpoOOAe+4yntHR0paplR1VqPXsaDGHqR4yKtYzD7wXN+a3LpyaGL/VnYJcuWRT+2r4isR+kcXMOEIbktADE3/hG6eKLpR/8wJcYs2dr6Jgx8rclZcU3+/VT0QUXSJde6kuMFSvUbEemOjG9cbfj9kY62/8pgN7B3p07/BTp+Rd8QV/hhkC1Q6MmmujrVy/SxCcqVBdfr3jcjcPfkoDaZHaCbc63y8y0aY6qZ9zrx8+3NqhCV7hldr0tY/j3MXY/sPtDmneZA6mw9xSKuXOlb32rzXjHQ0yyujAW03Q/3x2fNdNVxx6rwd/7niuwbPdVt96q5k99yhcA6JPOOlP6804/01ft1bp7Nqj8sjI3tr4fh7/6ni2q9/ML4q3N+fU7kgYiCZgkd7a/UXTUCJW5Z32P3Q/s/gB0A8lpofjgB6Vx4yTbH2HCuecqduedqjJPu3P96b+b6T/Mr+SBa9e2GYlKtnl+1izFzzvPFwDok94xXtr8Fz/TV9VpxxqprCRsbHw7fn5rk/7ce3xxobH7gd0fgG4gOS0kN98s3XKL9POf+wLj8sslk1Su6N9f34rFNMgXp8Pe8vRD87qbX/c6xR54QLroIrfAWrlSuvde954A+rZ3v1u6P6lHkD5phEqmSVt2JJrx29l8r2aumaONQZP/eq2dV+oXFBi7H9j9AeiGWGNjY9ojRO3Zs0cnJ92FHaa2tlYlJSU6lNSEHCaXIyakG2++R0wIk494i1asUPH11+vI/fcrbruY8mJPP60Dn/2s4ps365uNjVptyto3SiWMNdMMM32+Xz81/eu/6pj/+A8pqTPd2EMPqd973qOmNWvU/MEPFtT32xHidaIcr+2E3w4gUlNT09IJf5TjTaWn4j1m1EjpzgXShef4kj7A3sg0eoOmJl1zOuKeSaq7+yINt9eYxuZqS1W11k4f6m6GCq45tXXtWdRyn6zO0oR26wmuTzWv1ab1WtCXTjI+9Jh05VId3vW8L2jF8aww47Wd7w8bNkx79+5t0wl/Z/Gm96nRZzTPmaNmk4QWl5cH/Y8mxM88U/1/9SsNuusuXXfJJXralNUOHqwHzHR7//66w0zrzPPdxx6rx0xS+u+XXaZ9pu4xd9/dNjFdt079zLqbvvWtIDEFUBiar7pa+t59fq6PGFWmqdPs3fqTg5uXhk9frI1jKzUiaLqfq4rFy11iao2/VKt83VjsVmmevZlqm3YUUkf8ZvsH+wHQTQxfauR7OK8weY23stI1ua9YIV1xRVDUpu5rr5lf9Zukv/1NevFFs6fEXN+l9s7/f/7nYJz+o+K1N0Ndc430X//lbsDycvWdZVLXYn8g3mSp4mX40nCd1q2pcdecb/qOSdTe7AtRMDb/WZrwGZsASKPtcCxtcTwrzHgZvhSZsTdG/fd/S5/4hPTJT0rPt2uGOfZYd93QZ8zBxt7YZOvbxNN2FWUS0zaeflqaPl2yozvZ61mTElMABcImJPY4sfA2X4CCYre73f4pElMgUySnhewjH5GefFJqbJROP13F112n2BNP+IWdO8ZeFmC7iTrrLOl1r5Psa//1X/1SAAXH/kB94YD0lR/5AhQEu73tdmf4aWQJyWmhs81wP/yh9LvfSS+9pH7jx7ux+P/t31yT/4MPSn/4g5vuv1/6n/9xCekb36ihV17pzqLapPQ730m7o30Afdh3vyct+IF0V9KQyei77Ha229tudyBLSE7hnHeemn7wAx2215fedJM0cKC0Zo30uc9Jl10mlZdLdlhS22w/dKi0bJl22+b85cult7zFrwRAwbM/cFevlq5cLFVv8IXok+z2tdvZbm+73YEsITlFWzYp/dCHpG98Q/rVr6SnnnIjPdmbHewZ0l/8QvrKV6TOxsoHULiuvFKv/Od/SlMXmR+wP/GF6FPsdrXb17a82VY0IItITgEAWXfgwx+Wfv1r6ea7pY/eLNWHdF6P3sVuR7s9zXY9YgdamTXLLwCyh+QUAJAbl1wiPfYnKXay9IaZ0pIfSi/t8wvRq9jtZref3Y5mex7+w6OKX3yxXwhkF8kpACB3TjpJus0kNT/7ubS51sx/UJr1VemuhzibGnV2+9jtZLeX3W52+9ntaLfnsGG+EpB9DF9q5Hs4rzDES7zJiDf/8TJ8abhsxWu7qytau1axX9+n2KOPSyNPkU4fLp14nFSc3rpzwQ4aE7ODjfQSOYu3yWznlxuknfXS8/9Q/Nxxir/nfWqeOlXxsXbwaqdQ99/2iNcJq9vV4UtJTo18b6wwxEu8yYg3//GSnIbLSbwNJgnyN10WvfqqSYya/ILUEqMOppOUZVLX2mdiGZL0xzNMrmKITLzFxYqdeKLio0cr/qY3yWQUfmlb7L8O8TphdbucnDJ8af6H8wpDvMSbjHjzHy/Dl4YjXod4HeJ1iNcJq8vwpQAAAOj1SE4BAAAQGSSnAAAAiAySUwAAAEQGySkAAAAig+QUAAAAkUFyCgAAgMggOQUAAEBkMEKUke8RE8IQL/EmI978x8sIUeGI1yFeh3gd4nXC6nZ1hKj0PjUAAACQBwxfauR7OK8wxEu8yYg3//EyfGk44nWI1yFeh3idsLoMXwoAAIBej+QUAAAAkUFyCgAAgMggOQUAAEBkkJwCAAAgMkhOAQAAEBkkpwAAAIgMklMAAABEBskpAAAAIiNWW1ub9tj6+/fv1+DBg/1cODvKSllZWfDYmVyONZtuvPkeazYM8RJvMuLNf7y7d+/WuHHjtHXr1pZxn6McbyrE6xCvQ7wO8Tr5jrehoUGlpaXavn17m/g6i5fhS418D+cVhniJNxnx5j9ehi8NR7wO8TrE6xCvE1aX4UsBAADQ65GcAgAAIDJITgEAABAZJKcAAACIDJJTAAAARAbJKQAAACKD5BQAAACRQXIKAACAyIg1NjamPULUnj17WkZN6Uhtba1KSkp06NAhXxIulyMmpBtvvkdMCEO8xJuMePMfr+2E3w4gUlNT09IJf5TjTYV4HeJ1iNchXiff8drO94cNG6a9e/e26YS/s3jT+9QAAABAHjB8qZHv4bzCEC/xJiPe/MfL8KXhiNchXod4HeJ1wuoyfCkAAAB6PZJTAAAARAbJKQAAACKD5BQAAACRQXIKAACAyCA5BQAAQGSQnAIAACAySE4BAAAQGQxfauR7OK8wxEu8yYg3//EyfGk44nWI1yFeh3idsLoMXwoAAIBej+FLjXwP5xWGeIk3GfHmP16GLw1HvA7xOsTrEK8TVpfhSwEAANDrkZwCAAAgMkhOAQAAEBkkpwAAAIgMklMAAABEBskpAAAAIoPkFAAAAJFBcgoAAIDIYPhSI9/DeYUhXuJNRrz5j5fhS8MRr0O8DvE6xOuE1WX4UgAAAPR6DF9q5Hs4rzDES7zJiDf/8TJ8aTjidYjXIV6HeJ2wugxfCgAAgF6P5BQAAACRQXIKAACAyCA5BQAAQGSQnAIAACAySE4BAAAQGSSnAAAAiAySUwAAAERGTjrht0P/nXbaabrgggt8SbhER/2xWCx47EgmdS07fGr//v39XLhcxUC8DvE6xOtENd4h49+nAUNO1H1Lr9Wzzz6rlwedpN/sPqKPn+7Wl69Oq8P0xk7Bl+85UdeeNUDD+rvvcPOLTRpqnp85pPW8SJTi7S3f78InGvXvw/e1DP9469MHde2ZA4Ln7UUhXivq3++9zx/WpSPdshcPxbVm+yv61JtPDOY70lPxthfF7/ehfxzRS68d1EfefLL+8Y9/6Pn4scEx9dNj+ncab6y2tvb/t3cvIVFFcRjAvxlHZ5zJxNe08IH4INEUJSzSFkabkBbZokVt2oSQ0KLXxk0EglGLihCEiDYVVEQtXIREQYFEJiIhNllCYIuiFPU6k82je8696Th4nWGGxiN+v9W93lG++XM958y5ZzgJ762vaRo8Ho95Zm1ubg79/f0b3vmIYiVSVFU6S+Zl3mjMm968WXUteOXdD9eHF7h49CDOTmbjTkMYZTZNXk/XXtRWEm1/0713thWR95m/CAPfbbhVF8LovB23v9pwY+cSCjOMjkxQKe9mqe/5Lx58C0TwuDGIMxPGPXytwrhPY6mQV1C9vifGPWgvCqPdG0HP5wzsyAzhQmnAvGpto/LGUrG+YwEnevVaYnhgVZtanuGPm/e/zJyKRl9I5O/+r9cKzMu80ZiXeaOtlffh1CJ6R34g4M5HZ2gUv8eHsLCwIK+lozFfj8gRvf2flXR2PusRecU21p8q2vDebtT58PyIrGk0lfJulvpuK6vGS/2D1FRGPioiszg++xo+n8+8upoKeQXV6+utacS93FZ5XKnXtGr4wfLvrGej8sZSsb4OhwNa7QE8j5TINvXuXjf25OuDVV28/iKxd01EtAWU5zplI5qHAHzhnOUBLyVHLJ3Ii6zMPnkdIfOIUuHUfplHwIzNJQcmlDpxr87AhZygJveDp9RtDy7INrU42453P4PmT+PjzKmOeQ3Ma2Bew1bL65sP48gbTX66n14Mo29yCacqs9BhvkS1vFZUqu9QsEDWsafBJTump9NBPGl1IydzZemFSnk3S31Pvl1EMBTClSYPuscCmPZHMNi29iNSFfIKqtdX1LTYbcfpqiz92I9DBUGcq881r1rbqLyxVKyvVZt6rDQzbl7OnBIR6cRC/UctxmOnjpJMdNc6MbNkrGOl5AzqNb3e5JI17ap2yo5pQu+wKDXlHjtu1vyRs1FXG7PRWmg8KqXkNRc40FPvkjW9v8+Nj1pia9fJWiptKgenREQ68Q3SutyVTr7N60CnPpii5PXtzl5VUzFj0myuOaPkXdrlkksmhCKnTZ5Tarr0//9/RE0vly+aZ5SsVNpUDk6JiIiISBkcnBIRERGRMjg4JSIiIiJlcHBKRERERIoA/gIhziLdGiIlTgAAAABJRU5ErkJggg==;" vertex="1" parent="1">
          <mxGeometry x="740" y="826" width="679" height="762" as="geometry" />
        </mxCell>
      </root>
    </mxGraphModel>
  </diagram>
</mxfile>
